<?xml version="1.0" encoding="UTF-8" standalone="no"?> <!-- Created with Vectornator for iOS (http://vectornator.io/) --><!DOCTYPE svg PUBLIC "-//W3C//DTD SVG 1.1//EN" "http://www.w3.org/Graphics/SVG/1.1/DTD/svg11.dtd">
<svg height="100%" style="fill-rule:nonzero;clip-rule:evenodd;stroke-linecap:round;stroke-linejoin:round;" xmlns:xlink="http://www.w3.org/1999/xlink" xmlns="http://www.w3.org/2000/svg" xml:space="preserve" width="100%" xmlns:vectornator="http://vectornator.io" version="1.1" viewBox="0 0 114 114">
<metadata>
<vectornator:setting key="DimensionsVisible" value="1"/>
<vectornator:setting key="PencilOnly" value="0"/>
<vectornator:setting key="SnapToPoints" value="0"/>
<vectornator:setting key="OutlineMode" value="0"/>
<vectornator:setting key="CMYKEnabledKey" value="0"/>
<vectornator:setting key="RulersVisible" value="1"/>
<vectornator:setting key="SnapToEdges" value="0"/>
<vectornator:setting key="GuidesVisible" value="1"/>
<vectornator:setting key="DisplayWhiteBackground" value="0"/>
<vectornator:setting key="doHistoryDisabled" value="0"/>
<vectornator:setting key="SnapToGuides" value="1"/>
<vectornator:setting key="TimeLapseWatermarkDisabled" value="0"/>
<vectornator:setting key="Units" value="Pixels"/>
<vectornator:setting key="DynamicGuides" value="0"/>
<vectornator:setting key="IsolateActiveLayer" value="0"/>
<vectornator:setting key="SnapToGrid" value="0"/>
</metadata>
<defs/>
<g id="Background" vectornator:layerName="Background">
<path d="M18-2.27424e-06L96-2.27424e-06C105.941-2.27424e-06+114+8.05887+114+18L114+96C114+105.941+105.941+114+96+114L18+114C8.05887+114+3.41633e-07+105.941+3.41633e-07+96L3.41633e-07+18C3.41633e-07+8.05887+8.05887-2.27424e-06+18-2.27424e-06Z" opacity="1" fill="#ffffff"/>
<path stroke="#000000" stroke-width="0.1" d="M15+57C15+33.804+33.804+15+57+15C80.196+15+99+33.804+99+57C99+80.196+80.196+99+57+99C33.804+99+15+80.196+15+57Z" fill="#123c69" stroke-linecap="butt" opacity="0" stroke-linejoin="miter"/>
</g>
<g id="Layer 2" vectornator:layerName="Layer 2" visibility="hidden">
<path d="M67+76.5035L57+74.0938L47+76.5035C43.686+76.5035+41+79.7421+41+83.7325L41+93.3712C41+97.3616+43.686+100.6+47+100.6L67+100.6C70.314+100.6+73+97.3616+73+93.3712L73+83.7325C73+79.7421+70.314+76.5035+67+76.5035Z" opacity="1" fill="#fff5ed"/>
<path stroke="#fff5ed" stroke-width="5.32546" d="M49+74.0938L65+74.0938" fill="#fff5ed" stroke-linecap="round" opacity="1" stroke-linejoin="round"/>
</g>
<g id="Layer 1" vectornator:layerName="Layer 1" visibility="hidden">
<path d="M45.6045+41.836C46.6057+37.6968+48.2332+34.0377+49.4199+31.6472C50.6067+29.2568+51.2893+28.0953+51.7495+27.5007C51.8686+27.3105+52.0193+27.14+52.2137+27.041C52.3565+26.9538+52.4596+26.9301+52.5627+26.9063L52.5627+26.9063C52.6142+26.8945+52.6975+26.9024+52.7491+26.8906C53.2883+26.875+53.7362+27.2876+53.8549+27.8031C53.9896+28.1521+54.8137+29.3738+55.5469+30.3179C56.1889+30.9843+56.8428+31.7024+57.4769+32.4521C57.5086+32.4719+57.5086+32.4719+57.5403+32.4918C62.5139+38.2953+67.8744+47.4298+65.0858+57.9522C64.8792+58.7055+64.641+59.4389+64.3908+60.1208C64.371+60.1525+64.363+60.2358+64.3432+60.2675C64.2955+60.4142+64.228+60.5926+64.1487+60.7195C64.109+60.7829+64.101+60.8661+64.0415+60.9613C63.9541+61.1714+63.8668+61.3815+63.7795+61.5916C63.72+61.6868+63.6723+61.8335+63.6128+61.9286C63.5532+62.0237+63.5254+62.1387+63.4858+62.2021C63.4183+62.3805+63.3389+62.5074+63.2714+62.6858C63.2317+62.7492+63.1722+62.8443+63.1524+62.8761C63.0531+63.0346+62.9856+63.213+62.9063+63.3399C62.8864+63.3716+62.8468+63.435+62.8269+63.4667C62.7079+63.657+62.6205+63.8671+62.5213+64.0257L62.5213+64.0257C62.4023+64.2159+62.2832+64.4062+62.184+64.5648C62.1642+64.5965+62.1642+64.5965+62.1443+64.6282C61.3308+65.9284+60.5492+66.8955+60.0573+67.4703C60.0364+69.6194+59.8529+71.8874+59.4434+74.2347C59.336+74.8294+58.7569+75.2613+58.1621+75.154C57.9956+75.138+57.8688+75.0587+57.7736+74.9991C57.3931+74.761+57.1831+74.3208+57.2627+73.841C57.6205+71.8586+57.784+69.9752+57.8245+68.1472C56.5202+67.5518+55.3191+66.9327+54.2091+66.2382C47.8667+62.2699+44.6576+56.4673+44.7089+48.9096C44.7012+48.287+45.2368+47.7837+45.8395+47.8078C46.462+47.8002+46.9654+48.3357+46.9413+48.9384C46.9299+56.0798+50.159+61.4978+56.6562+65.0776C57.1835+65.3633+57.7943+64.9513+57.7669+64.3604C57.4045+59.368+56.1894+54.6805+54.9704+49.8582C53.7119+44.7465+52.3465+39.5236+51.8379+33.4248C51.8063+33.0521+51.2949+32.9527+51.1282+33.2897C50.0605+35.4899+48.8854+38.2848+48.0393+41.3297C47.9559+41.6746+48.0073+42.0156+48.2332+42.2893L50.4284+45.3397C50.7851+45.8276+50.6816+46.5571+50.162+46.8939C49.7654+47.1752+49.2776+47.179+48.8971+46.9409C48.7702+46.8615+48.6632+46.7504+48.5879+46.6592L45.7864+42.7442C45.5922+42.4903+45.5409+42.1493+45.6045+41.836Z" opacity="1" fill="#fff5ed"/>
</g>
<g id="Layer 3" vectornator:layerName="Layer 3">
<path d="M88.2032+15.5269C87.6565+15.6079+87.1498+15.8667+86.7448+16.2716C86.0969+16.7576+83.186+18.0492+80.7561+18.9402C78.8122+19.4262+76.7613+19.9988+74.7364+20.6468C74.6554+20.6468+74.6622+20.6468+74.5812+20.6468C58.787+25.5876+38.4468+36.2032+31.4812+58.7201C30.9952+60.34+30.595+61.9597+30.271+63.4986C30.271+63.5796+30.2089+63.7279+30.2089+63.8089C30.1279+64.1329+30.0228+64.54+30.0228+64.8639C30.0228+65.0259+29.9607+65.2105+29.9607+65.4535C29.8797+65.9395+29.7935+66.4259+29.7125+66.9119C29.7125+67.1549+29.6194+67.4757+29.6194+67.7187C29.6194+67.9617+29.5573+68.1773+29.5573+68.3393C29.4763+68.7442+29.4832+69.0824+29.4022+69.4874C29.4022+69.6493+29.4022+69.9028+29.4022+69.9838C29.4022+70.3888+29.3091+70.7769+29.3091+71.1009C29.3091+71.1819+29.3091+71.3612+29.3091+71.4422C29.3091+71.9282+29.216+72.4025+29.216+72.8075C29.216+73.2935+29.216+73.7678+29.216+74.1728C29.216+74.2538+29.216+74.278+29.216+74.359C29.216+77.6798+29.5626+80.3413+29.8056+81.9612C27.3757+85.93+25.1091+90.308+23.1652+95.0867C22.6793+96.3017+23.2225+97.7658+24.4374+98.2518C24.7614+98.4138+25.0943+98.4069+25.3373+98.4069C26.3093+98.4069+27.1975+97.8274+27.6025+96.8554C29.2224+92.8056+31.1008+89.1797+33.1257+85.7779C36.2036+86.1829+39.1032+86.4295+41.9381+86.4295C58.1373+86.4295+70.7121+79.4469+79.2977+65.5156C79.8663+64.6311+79.5754+63.6093+78.9564+62.847C78.9564+62.847+74.5983+56.9664+74.7364+56.9204L84.3866+52.9796C85.0345+52.7366+85.5089+52.1692+85.7519+51.5212C88.6677+42.7736+89.9014+34.1859+90.4684+28.4352C91.0353+22.6845+91.0958+19.7533+90.9338+18.1334C90.9338+17.6474+90.8665+17.1731+90.6235+16.7681C90.4615+16.4441+90.289+16.2785+90.127+16.1165C90.046+16.0355+89.8977+15.9493+89.8167+15.8683C89.3308+15.5443+88.7499+15.4459+88.2032+15.5269Z" opacity="1" fill="#123c69"/>
<path d="M38.7446+93.5353C36.5259+93.5353+34.8446+94.6302+34.8446+96.0334C34.8446+97.4367+36.5259+98.5+38.7446+98.5L90.9446+98.5C93.1633+98.5+94.8446+97.4367+94.8446+96.0334C94.8446+94.6302+93.1633+93.5353+90.9446+93.5353L38.7446+93.5353Z" opacity="1" fill="#123c69"/>
</g>
</svg>
