<?xml version="1.0" encoding="UTF-8" standalone="no"?> <!-- Created with Vectornator for iOS (http://vectornator.io/) --><!DOCTYPE svg PUBLIC "-//W3C//DTD SVG 1.1//EN" "http://www.w3.org/Graphics/SVG/1.1/DTD/svg11.dtd">
<svg height="100%" style="fill-rule:nonzero;clip-rule:evenodd;stroke-linecap:round;stroke-linejoin:round;" xmlns:xlink="http://www.w3.org/1999/xlink" xmlns="http://www.w3.org/2000/svg" xml:space="preserve" width="100%" xmlns:vectornator="http://vectornator.io" version="1.1" viewBox="0 0 1280 640">
<metadata>
<vectornator:setting key="DimensionsVisible" value="0"/>
<vectornator:setting key="PencilOnly" value="0"/>
<vectornator:setting key="SnapToPoints" value="0"/>
<vectornator:setting key="OutlineMode" value="0"/>
<vectornator:setting key="CMYKEnabledKey" value="0"/>
<vectornator:setting key="RulersVisible" value="1"/>
<vectornator:setting key="SnapToEdges" value="0"/>
<vectornator:setting key="GuidesVisible" value="0"/>
<vectornator:setting key="DisplayWhiteBackground" value="0"/>
<vectornator:setting key="doHistoryDisabled" value="0"/>
<vectornator:setting key="SnapToGuides" value="1"/>
<vectornator:setting key="TimeLapseWatermarkDisabled" value="0"/>
<vectornator:setting key="Units" value="Points"/>
<vectornator:setting key="DynamicGuides" value="1"/>
<vectornator:setting key="IsolateActiveLayer" value="0"/>
<vectornator:setting key="SnapToGrid" value="0"/>
</metadata>
<defs/>
<g id="background" vectornator:layerName="background">
<path stroke="#000000" stroke-opacity="1.04083e-16" stroke-width="8" d="M-2.18326e-05-5.321e-06L1280-5.321e-06L1280+640L-2.18326e-05+640L-2.18326e-05-5.321e-06Z" fill="#fff5ed" stroke-linecap="round" opacity="1" stroke-linejoin="round"/>
</g>
<g id="Layer 2" vectornator:layerName="Layer 2">
<g opacity="1">
<g opacity="1">
<path stroke="#000000" fill-rule="evenodd" stroke-opacity="1.04083e-16" stroke-width="1" d="M293.247+125L120.637+224.945L120.573+424.946L293.118+525L465.729+425.055L465.792+225.056L293.247+125Z" fill="#191f3d" stroke-linecap="round" opacity="1" stroke-linejoin="round"/>
<g opacity="1">
<path stroke="#000000" fill-rule="evenodd" stroke-opacity="1.04083e-16" stroke-width="1" d="M293.247+115L120.637+214.945L120.573+414.946L293.118+515L465.729+415.055L465.792+215.056L293.247+115Z" fill="#123c69" stroke-linecap="round" opacity="1" stroke-linejoin="round"/>
<path stroke="#000000" fill-rule="evenodd" stroke-opacity="1.04083e-16" stroke-width="1" d="M293.238+138.673L141.06+226.787L141.003+403.116L293.127+491.327L445.305+403.212L445.362+226.886L293.238+138.673Z" fill="#fff5ed" stroke-linecap="round" opacity="1" stroke-linejoin="round"/>
<g opacity="1">
<path d="M373.254+438.349C372.496+438.787+371.838+438.871+371.282+438.604C370.725+438.334+370.243+437.846+369.832+437.137L367.61+433.286L366.56+433.892L366.005+432.931L367.072+432.219L366.072+430.151L367.122+429.545L368.267+431.529L370.175+430.427L370.773+431.46L368.864+432.562L371.095+436.426C371.341+436.855+371.617+437.139+371.92+437.282C372.221+437.425+372.572+437.381+372.97+437.152C373.096+437.078+373.222+436.981+373.344+436.857C373.469+436.735+373.574+436.615+373.662+436.499L374.443+437.312C374.289+437.493+374.11+437.676+373.906+437.865C373.704+438.052+373.487+438.214+373.254+438.349Z" fill-rule="evenodd" fill="#24639e" opacity="1"/>
<path d="M375.865+436.609L371.766+429.509L373.033+428.777L377.132+435.877L375.865+436.609ZM371.581+427.71C371.35+427.845+371.112+427.88+370.868+427.819C370.626+427.758+370.434+427.607+370.293+427.365C370.159+427.131+370.127+426.894+370.194+426.654C370.264+426.414+370.415+426.227+370.647+426.092C370.891+425.951+371.131+425.913+371.369+425.976C371.606+426.039+371.791+426.189+371.926+426.422C372.067+426.664+372.105+426.904+372.042+427.142C371.979+427.38+371.825+427.569+371.581+427.71Z" fill-rule="evenodd" fill="#24639e" opacity="1"/>
<path d="M382.001+433.299C381.117+433.808+380.221+433.892+379.316+433.547C378.409+433.2+377.618+432.44+376.938+431.264C376.497+430.496+376.257+429.753+376.225+429.034C376.191+428.314+376.32+427.666+376.61+427.091C376.898+426.515+377.311+426.073+377.845+425.764C378.264+425.524+378.662+425.389+379.043+425.364C379.424+425.339+379.838+425.366+380.284+425.444L379.529+424.267L377.963+421.557L379.23+420.825L385.223+431.205L384.19+431.803L383.592+431.039L383.563+431.056C383.449+431.485+383.264+431.906+383.009+432.318C382.755+432.731+382.418+433.057+382.001+433.299ZM381.677+432.066C381.999+431.881+382.258+431.628+382.454+431.306C382.651+430.986+382.799+430.582+382.895+430.1L380.783+426.441C380.339+426.346+379.952+426.325+379.617+426.374C379.283+426.424+378.971+426.534+378.679+426.702C378.319+426.91+378.052+427.209+377.877+427.603C377.702+427.996+377.641+428.444+377.694+428.951C377.746+429.461+377.925+429.976+378.228+430.5C378.717+431.346+379.264+431.906+379.868+432.177C380.471+432.451+381.075+432.413+381.677+432.066Z" fill-rule="evenodd" fill="#24639e" opacity="1"/>
<path d="M389.497+432.781C389.332+432.876+389.172+432.947+389.019+432.998C388.867+433.046+388.716+433.088+388.566+433.122L388.242+431.988C388.331+431.963+388.432+431.935+388.543+431.902C388.655+431.87+388.754+431.83+388.84+431.78C389.24+431.548+389.486+431.218+389.581+430.788C389.675+430.357+389.667+429.89+389.558+429.383L389.423+428.781L382.481+423.323L383.777+422.574L387.422+425.62C387.718+425.862+388.026+426.123+388.341+426.401C388.657+426.679+388.966+426.957+389.269+427.237L389.328+427.203C389.244+426.809+389.151+426.414+389.048+426.012C388.947+425.61+388.853+425.223+388.764+424.846L387.758+420.276L388.998+419.56L390.763+428.745C390.862+429.322+390.904+429.865+390.887+430.374C390.871+430.883+390.755+431.342+390.544+431.748C390.332+432.156+389.983+432.499+389.497+432.781Z" fill-rule="evenodd" fill="#24639e" opacity="1"/>
<path d="M396.813+424.747C396.055+425.185+395.397+425.269+394.841+425.002C394.284+424.733+393.802+424.244+393.391+423.535L391.169+419.684L390.119+420.29L389.564+419.329L390.631+418.618L389.631+416.549L390.681+415.943L391.826+417.927L393.734+416.825L394.332+417.858L392.423+418.961L394.654+422.824C394.9+423.253+395.176+423.537+395.479+423.68C395.78+423.823+396.131+423.779+396.529+423.55C396.655+423.476+396.781+423.379+396.903+423.255C397.028+423.133+397.133+423.013+397.221+422.898L398.002+423.71C397.848+423.891+397.669+424.074+397.465+424.263C397.263+424.451+397.046+424.613+396.813+424.747Z" fill-rule="evenodd" fill="#24639e" opacity="1"/>
<path d="M401.171+422.231C400.773+422.46+400.369+422.586+399.961+422.607C399.553+422.63+399.17+422.54+398.814+422.338C398.456+422.136+398.158+421.824+397.918+421.408C397.474+420.64+397.48+419.846+397.932+419.026C398.387+418.207+399.317+417.288+400.723+416.269C400.55+415.968+400.346+415.705+400.114+415.482C399.883+415.261+399.612+415.129+399.302+415.087C398.993+415.045+398.654+415.131+398.284+415.343C397.876+415.579+397.541+415.88+397.28+416.246C397.017+416.61+396.798+416.968+396.624+417.315L395.63+416.741C395.769+416.465+395.944+416.17+396.15+415.857C396.358+415.543+396.605+415.24+396.893+414.952C397.179+414.664+397.512+414.409+397.89+414.19C398.475+413.854+399.02+413.702+399.529+413.732C400.041+413.761+400.506+413.944+400.929+414.285C401.352+414.624+401.737+415.095+402.084+415.697L404.584+420.027L403.549+420.625L402.945+419.846L402.915+419.863C402.738+420.341+402.511+420.791+402.238+421.216C401.964+421.639+401.608+421.978+401.171+422.231ZM400.948+421C401.287+420.802+401.558+420.543+401.76+420.219C401.962+419.895+402.143+419.491+402.305+419.009L401.194+417.086C400.483+417.627+399.946+418.104+399.584+418.521C399.222+418.937+399.01+419.316+398.947+419.657C398.883+419.996+398.938+420.314+399.107+420.604C399.33+420.993+399.612+421.204+399.946+421.237C400.283+421.269+400.617+421.189+400.948+421Z" fill-rule="evenodd" fill="#24639e" opacity="1"/>
<path d="M408.214+418.165C407.902+418.344+407.612+418.424+407.343+418.405C407.071+418.386+406.823+418.281+406.596+418.087C406.366+417.896+406.149+417.62+405.941+417.26L400.807+408.368L402.076+407.636L407.26+416.616C407.368+416.8+407.477+416.913+407.593+416.957C407.709+417.002+407.812+416.997+407.898+416.947C407.938+416.924+407.972+416.901+408.003+416.875C408.035+416.852+408.081+416.814+408.144+416.766L408.86+417.635C408.799+417.711+408.717+417.793+408.616+417.883C408.512+417.976+408.378+418.068+408.214+418.165Z" fill-rule="evenodd" fill="#24639e" opacity="1"/>
<path d="M413.535+415.093C412.902+415.457+412.243+415.64+411.557+415.64C410.871+415.642+410.215+415.453+409.59+415.076C408.963+414.7+408.426+414.123+407.976+413.344C407.534+412.576+407.303+411.825+407.288+411.089C407.271+410.354+407.42+409.694+407.738+409.109C408.054+408.524+408.485+408.075+409.03+407.76C409.632+407.413+410.227+407.255+410.815+407.284C411.402+407.314+411.949+407.516+412.458+407.89C412.965+408.265+413.413+408.787+413.8+409.458C413.872+409.584+413.941+409.712+414.005+409.845C414.068+409.978+414.114+410.093+414.146+410.192L409.144+413.079L408.609+412.183L412.574+409.893C412.176+409.203+411.724+408.761+411.216+408.568C410.709+408.374+410.179+408.437+409.626+408.757C409.293+408.949+409.028+409.228+408.826+409.599C408.624+409.967+408.542+410.411+408.576+410.929C408.607+411.448+408.807+412.023+409.171+412.654C409.525+413.267+409.927+413.708+410.375+413.982C410.825+414.253+411.286+414.386+411.761+414.378C412.235+414.369+412.687+414.241+413.114+413.995C413.453+413.797+413.735+413.567+413.958+413.302C414.181+413.037+414.377+412.747+414.543+412.429L415.467+412.985C415.273+413.37+415.023+413.748+414.714+414.121C414.404+414.493+414.011+414.817+413.535+415.093Z" fill-rule="evenodd" fill="#24639e" opacity="1"/>
<path d="M419.774+411.491C419.269+411.781+418.729+411.968+418.152+412.048C417.575+412.128+417.041+412.122+416.549+412.031L416.69+410.861C417.14+410.925+417.575+410.937+417.996+410.903C418.417+410.868+418.832+410.733+419.24+410.497C419.696+410.232+419.978+409.931+420.086+409.59C420.193+409.25+420.164+408.932+419.995+408.641C419.854+408.397+419.659+408.242+419.406+408.174C419.151+408.107+418.87+408.088+418.558+408.12C418.245+408.151+417.929+408.195+417.611+408.248C417.213+408.324+416.805+408.37+416.391+408.389C415.974+408.41+415.583+408.351+415.219+408.212C414.853+408.073+414.556+407.804+414.324+407.404C413.994+406.832+413.935+406.224+414.148+405.584C414.36+404.942+414.85+404.399+415.618+403.955C416.075+403.692+416.54+403.532+417.011+403.473C417.483+403.414+417.916+403.414+418.312+403.469L418.186+404.631C417.836+404.587+417.498+404.578+417.169+404.606C416.843+404.633+416.523+404.736+416.212+404.917C415.774+405.169+415.509+405.456+415.414+405.775C415.322+406.095+415.349+406.386+415.501+406.649C415.631+406.872+415.81+407.011+416.044+407.065C416.275+407.118+416.54+407.128+416.837+407.093C417.134+407.057+417.447+407.009+417.775+406.95C418.177+406.884+418.592+406.838+419.015+406.807C419.438+406.777+419.835+406.832+420.208+406.973C420.58+407.114+420.896+407.408+421.155+407.854C421.38+408.244+421.485+408.656+421.47+409.092C421.456+409.527+421.31+409.954+421.035+410.373C420.757+410.792+420.338+411.164+419.774+411.491Z" fill-rule="evenodd" fill="#24639e" opacity="1"/>
<path d="M424.688+408.654C424.444+408.793+424.185+408.827+423.909+408.753C423.633+408.679+423.417+408.507+423.259+408.233C423.091+407.943+423.044+407.659+423.118+407.383C423.192+407.107+423.349+406.899+423.594+406.758C423.846+406.613+424.109+406.577+424.385+406.651C424.662+406.724+424.883+406.908+425.052+407.198C425.21+407.471+425.252+407.745+425.176+408.021C425.102+408.296+424.94+408.507+424.688+408.654Z" fill-rule="evenodd" fill="#24639e" opacity="1"/>
<path d="M430.533+405.279C429.902+405.643+429.252+405.824+428.583+405.822C427.914+405.82+427.27+405.626+426.655+405.243C426.039+404.86+425.502+404.275+425.048+403.488C424.593+402.701+424.366+401.935+424.364+401.192C424.362+400.448+424.536+399.78+424.888+399.187C425.239+398.596+425.721+398.122+426.333+397.769C426.8+397.5+427.249+397.352+427.68+397.323C428.111+397.295+428.511+397.323+428.884+397.405L428.722+398.606C428.412+398.539+428.116+398.514+427.831+398.528C427.547+398.543+427.27+398.629+426.998+398.785C426.571+399.033+426.26+399.362+426.062+399.774C425.866+400.185+425.788+400.647+425.832+401.159C425.877+401.672+426.051+402.196+426.361+402.731C426.668+403.265+427.028+403.68+427.438+403.974C427.848+404.269+428.28+404.435+428.734+404.471C429.189+404.504+429.626+404.403+430.043+404.162C430.365+403.976+430.626+403.734+430.83+403.436C431.032+403.137+431.186+402.827+431.287+402.51L432.316+403.044C432.162+403.522+431.935+403.951+431.63+404.334C431.327+404.717+430.96+405.031+430.533+405.279Z" fill-rule="evenodd" fill="#24639e" opacity="1"/>
<path d="M436.015+402.114C435.615+402.343+435.213+402.47+434.805+402.491C434.397+402.514+434.014+402.423+433.656+402.221C433.3+402.019+433.002+401.708+432.76+401.291C432.316+400.523+432.322+399.73+432.774+398.909C433.229+398.091+434.159+397.171+435.567+396.153C435.392+395.852+435.19+395.589+434.956+395.366C434.725+395.145+434.453+395.012+434.146+394.97C433.837+394.928+433.496+395.014+433.128+395.227C432.72+395.463+432.385+395.764+432.122+396.13C431.859+396.494+431.64+396.851+431.465+397.199L430.474+396.624C430.613+396.348+430.786+396.054+430.994+395.74C431.2+395.427+431.449+395.124+431.735+394.836C432.021+394.547+432.356+394.293+432.734+394.074C433.317+393.737+433.864+393.586+434.374+393.615C434.883+393.645+435.348+393.828+435.771+394.168C436.194+394.507+436.579+394.979+436.928+395.58L439.428+399.911L438.393+400.509L437.787+399.73L437.757+399.747C437.58+400.224+437.355+400.675+437.082+401.1C436.808+401.523+436.453+401.862+436.015+402.114ZM435.79+400.883C436.131+400.685+436.4+400.426+436.602+400.102C436.804+399.778+436.987+399.374+437.149+398.893L436.038+396.969C435.327+397.51+434.788+397.988+434.426+398.404C434.064+398.821+433.852+399.2+433.791+399.541C433.728+399.879+433.78+400.197+433.948+400.488C434.174+400.877+434.453+401.087+434.79+401.121C435.127+401.152+435.459+401.072+435.79+400.883Z" fill-rule="evenodd" fill="#24639e" opacity="1"/>
</g>
<g opacity="1">
<g opacity="1">
<path d="M219.68+332.289L219.68+302.897L209.732+302.897L209.732+299.16L234.073+299.16L234.073+302.897L224.125+302.897L224.125+332.289L219.68+332.289Z" fill-rule="evenodd" fill="#123c69" opacity="1"/>
<path d="M239.578+332.289L239.578+307.695L243.972+307.695L243.972+332.289L239.578+332.289ZM241.8+302.746C240.992+302.746+240.319+302.485+239.78+301.963C239.241+301.441+238.972+300.759+238.972+299.918C238.972+299.11+239.241+298.445+239.78+297.923C240.319+297.401+240.992+297.14+241.8+297.14C242.642+297.14+243.324+297.401+243.846+297.923C244.367+298.445+244.628+299.11+244.628+299.918C244.628+300.759+244.367+301.441+243.846+301.963C243.324+302.485+242.642+302.746+241.8+302.746Z" fill-rule="evenodd" fill="#123c69" opacity="1"/>
<path d="M260.486+332.895C257.422+332.895+254.973+331.767+253.138+329.512C251.303+327.256+250.386+324.091+250.386+320.017C250.386+317.358+250.882+315.068+251.875+313.149C252.868+311.23+254.173+309.74+255.789+308.68C257.405+307.619+259.139+307.089+260.991+307.089C262.439+307.089+263.676+307.341+264.703+307.846C265.73+308.351+266.765+309.042+267.809+309.917L267.607+305.725L267.607+296.332L272+296.332L272+332.289L268.415+332.289L268.011+329.411L267.91+329.411C266.967+330.353+265.856+331.17+264.576+331.86C263.297+332.55+261.934+332.895+260.486+332.895ZM261.496+329.209C262.607+329.209+263.659+328.939+264.652+328.401C265.645+327.862+266.63+327.037+267.607+325.926L267.607+313.25C266.597+312.341+265.62+311.701+264.677+311.331C263.735+310.961+262.758+310.776+261.748+310.776C260.503+310.776+259.358+311.154+258.314+311.912C257.271+312.669+256.437+313.747+255.814+315.144C255.192+316.541+254.88+318.149+254.88+319.967C254.88+322.896+255.461+325.169+256.622+326.785C257.784+328.401+259.408+329.209+261.496+329.209Z" fill-rule="evenodd" fill="#123c69" opacity="1"/>
<path d="M280.737+342.794C280.165+342.794+279.643+342.743+279.171+342.642C278.7+342.541+278.246+342.423+277.808+342.289L278.666+338.854C278.936+338.922+279.239+338.998+279.575+339.082C279.912+339.166+280.232+339.208+280.535+339.208C281.915+339.208+283.052+338.72+283.944+337.743C284.836+336.767+285.518+335.538+285.989+334.057L286.545+332.289L276.697+307.695L281.192+307.695L286.09+321.078C286.494+322.155+286.898+323.292+287.302+324.487C287.706+325.682+288.093+326.869+288.464+328.047L288.666+328.047C289.036+326.902+289.39+325.732+289.726+324.537C290.063+323.342+290.4+322.189+290.736+321.078L294.978+307.695L299.271+307.695L290.08+334.208C289.474+335.858+288.767+337.331+287.959+338.627C287.151+339.923+286.166+340.942+285.004+341.683C283.843+342.423+282.42+342.794+280.737+342.794Z" fill-rule="evenodd" fill="#123c69" opacity="1"/>
<path d="M321.34+332.289L321.34+302.897L311.391+302.897L311.391+299.16L335.733+299.16L335.733+302.897L325.784+302.897L325.784+332.289L321.34+332.289Z" fill-rule="evenodd" fill="#123c69" opacity="1"/>
<path d="M346.945+332.895C345.564+332.895+344.327+332.618+343.233+332.062C342.139+331.506+341.28+330.698+340.657+329.638C340.034+328.577+339.723+327.323+339.723+325.876C339.723+323.216+340.927+321.162+343.334+319.714C345.741+318.267+349.537+317.273+354.722+316.735C354.722+315.691+354.587+314.706+354.318+313.78C354.049+312.855+353.544+312.105+352.803+311.533C352.062+310.961+351.052+310.675+349.773+310.675C348.359+310.675+347.037+310.952+345.808+311.508C344.579+312.063+343.477+312.661+342.501+313.301L340.783+310.321C341.558+309.816+342.45+309.311+343.46+308.806C344.47+308.301+345.564+307.889+346.743+307.569C347.921+307.249+349.167+307.089+350.48+307.089C352.5+307.089+354.15+307.51+355.429+308.351C356.708+309.193+357.643+310.372+358.232+311.887C358.821+313.402+359.116+315.203+359.116+317.29L359.116+332.289L355.53+332.289L355.126+329.36L355.025+329.36C353.847+330.337+352.584+331.17+351.237+331.86C349.891+332.55+348.46+332.895+346.945+332.895ZM348.207+329.36C349.386+329.36+350.48+329.091+351.49+328.552C352.5+328.013+353.577+327.239+354.722+326.229L354.722+319.563C352.062+319.899+349.949+320.337+348.384+320.876C346.818+321.415+345.699+322.079+345.026+322.871C344.352+323.662+344.016+324.562+344.016+325.573C344.016+326.919+344.428+327.887+345.253+328.476C346.078+329.066+347.062+329.36+348.207+329.36Z" fill-rule="evenodd" fill="#123c69" opacity="1"/>
<path d="M371.337+332.895C370.26+332.895+369.384+332.668+368.711+332.213C368.038+331.759+367.549+331.111+367.246+330.269C366.943+329.427+366.792+328.384+366.792+327.138L366.792+296.332L371.185+296.332L371.185+327.441C371.185+328.081+371.303+328.544+371.539+328.83C371.775+329.116+372.044+329.259+372.347+329.259C372.482+329.259+372.608+329.251+372.726+329.234C372.844+329.217+373.02+329.192+373.256+329.158L373.812+332.491C373.542+332.592+373.206+332.685+372.801+332.769C372.397+332.853+371.909+332.895+371.337+332.895Z" fill-rule="evenodd" fill="#123c69" opacity="1"/>
<path d="M389.77+332.895C387.582+332.895+385.595+332.382+383.811+331.355C382.026+330.328+380.604+328.855+379.543+326.936C378.483+325.017+377.953+322.711+377.953+320.017C377.953+317.358+378.483+315.06+379.543+313.124C380.604+311.188+381.984+309.698+383.685+308.654C385.385+307.611+387.178+307.089+389.063+307.089C391.15+307.089+392.935+307.569+394.416+308.528C395.898+309.488+397.017+310.834+397.775+312.568C398.532+314.302+398.911+316.331+398.911+318.654C398.911+319.091+398.894+319.529+398.86+319.967C398.827+320.405+398.776+320.775+398.709+321.078L381.387+321.078L381.336+317.947L395.073+317.947C395.073+315.556+394.559+313.73+393.532+312.467C392.506+311.205+391.033+310.574+389.114+310.574C387.969+310.574+386.858+310.902+385.78+311.558C384.703+312.215+383.819+313.242+383.129+314.639C382.439+316.036+382.094+317.829+382.094+320.017C382.094+322.138+382.473+323.889+383.23+325.27C383.988+326.65+384.989+327.685+386.235+328.375C387.481+329.066+388.844+329.411+390.326+329.411C391.504+329.411+392.581+329.234+393.558+328.88C394.534+328.527+395.477+328.064+396.386+327.492L397.951+330.32C396.874+331.027+395.653+331.633+394.29+332.138C392.926+332.643+391.42+332.895+389.77+332.895Z" fill-rule="evenodd" fill="#123c69" opacity="1"/>
<path d="M411.385+332.895C409.634+332.895+407.951+332.567+406.335+331.91C404.719+331.254+403.338+330.437+402.193+329.461L404.315+326.633C405.392+327.475+406.503+328.165+407.648+328.704C408.792+329.242+410.072+329.512+411.486+329.512C413.068+329.512+414.255+329.15+415.046+328.426C415.837+327.702+416.233+326.835+416.233+325.825C416.233+324.983+415.955+324.285+415.4+323.729C414.844+323.174+414.137+322.702+413.279+322.315C412.42+321.928+411.536+321.566+410.627+321.229C409.483+320.825+408.355+320.337+407.244+319.765C406.133+319.192+405.207+318.452+404.466+317.543C403.725+316.634+403.355+315.489+403.355+314.109C403.355+312.122+404.113+310.456+405.628+309.109C407.143+307.762+409.23+307.089+411.89+307.089C413.472+307.089+414.92+307.367+416.233+307.922C417.546+308.478+418.674+309.126+419.617+309.867L417.546+312.695C416.704+312.055+415.837+311.525+414.945+311.104C414.053+310.683+413.068+310.473+411.991+310.473C410.476+310.473+409.356+310.818+408.632+311.508C407.909+312.198+407.547+312.998+407.547+313.907C407.547+314.681+407.808+315.312+408.329+315.8C408.851+316.289+409.525+316.709+410.349+317.063C411.174+317.416+412.058+317.762+413.001+318.098C414.146+318.536+415.29+319.033+416.435+319.588C417.58+320.144+418.531+320.884+419.288+321.81C420.046+322.736+420.425+323.973+420.425+325.522C420.425+326.869+420.079+328.098+419.389+329.209C418.699+330.32+417.681+331.212+416.334+331.885C414.987+332.559+413.337+332.895+411.385+332.895Z" fill-rule="evenodd" fill="#123c69" opacity="1"/>
</g>
<g opacity="1">
<path d="M195.849+292.601C195.556+292.643+195.285+292.782+195.068+292.999C194.721+293.26+193.163+293.952+191.861+294.428C190.821+294.689+189.722+294.996+188.638+295.343C188.595+295.343+188.599+295.343+188.555+295.343C180.098+297.988+169.207+303.672+165.478+315.729C165.218+316.596+165.003+317.463+164.83+318.288C164.83+318.33+164.797+318.41+164.797+318.454C164.753+318.626+164.697+318.845+164.697+319.018C164.697+319.104+164.664+319.203+164.664+319.333C164.62+319.594+164.574+319.853+164.531+320.114C164.531+320.245+164.481+320.417+164.481+320.545C164.481+320.676+164.448+320.792+164.448+320.878C164.404+321.095+164.408+321.276+164.365+321.495C164.365+321.581+164.365+321.715+164.365+321.76C164.365+321.976+164.315+322.185+164.315+322.357C164.315+322.401+164.315+322.496+164.315+322.54C164.315+322.801+164.265+323.054+164.265+323.27C164.265+323.531+164.265+323.786+164.265+324.003C164.265+324.045+164.265+324.06+164.265+324.102C164.265+325.88+164.45+327.304+164.581+328.173C163.28+330.297+162.066+332.641+161.025+335.199C160.765+335.852+161.056+336.634+161.706+336.895C161.88+336.982+162.058+336.977+162.188+336.977C162.709+336.977+163.184+336.668+163.401+336.148C164.268+333.979+165.274+332.037+166.358+330.217C168.006+330.433+169.559+330.566+171.077+330.566C179.751+330.566+186.484+326.827+191.081+319.367C191.385+318.894+191.229+318.347+190.898+317.938C190.898+317.938+188.564+314.788+188.638+314.765L193.805+312.655C194.152+312.524+194.406+312.221+194.536+311.874C196.098+307.19+196.758+302.592+197.062+299.512C197.366+296.433+197.398+294.863+197.311+293.996C197.311+293.735+197.275+293.483+197.145+293.266C197.058+293.092+196.966+293.003+196.879+292.917C196.836+292.873+196.756+292.826+196.713+292.784C196.453+292.61+196.142+292.557+195.849+292.601Z" fill-rule="evenodd" fill="#123c69" opacity="1"/>
<path d="M169.367+334.37C168.179+334.37+167.279+334.955+167.279+335.707C167.279+336.458+168.179+337.028+169.367+337.028L197.317+337.028C198.505+337.028+199.405+336.458+199.405+335.707C199.405+334.955+198.505+334.37+197.317+334.37L169.367+334.37Z" fill-rule="evenodd" fill="#123c69" opacity="1"/>
</g>
</g>
</g>
</g>
<path stroke="#123c69" stroke-width="6" d="M520.573+247.5C520.573+292.5+520.573+337.5+520.573+382.5" fill="#123c69" stroke-linecap="square" opacity="1" stroke-linejoin="round"/>
<g opacity="1">
<path d="M571.554+300.659L565.758+273.107L569.58+273.107L572.394+287.975C572.646+289.431+572.905+290.901+573.171+292.385C573.437+293.869+573.71+295.353+573.99+296.837L574.158+296.837C574.438+295.353+574.746+293.869+575.082+292.385C575.418+290.901+575.74+289.431+576.048+287.975L579.828+273.107L583.146+273.107L586.926+287.975C587.262+289.431+587.591+290.901+587.913+292.385C588.235+293.869+588.55+295.353+588.858+296.837L589.026+296.837C589.306+295.353+589.572+293.869+589.824+292.385C590.076+290.901+590.328+289.431+590.58+287.975L593.394+273.107L596.964+273.107L591.294+300.659L586.842+300.659L582.768+284.363C582.544+283.299+582.32+282.256+582.096+281.234C581.872+280.212+581.662+279.169+581.466+278.105L581.298+278.105C581.102+279.169+580.885+280.212+580.647+281.234C580.409+282.256+580.178+283.299+579.954+284.363L575.964+300.659L571.554+300.659Z" opacity="1" fill="#24639e"/>
<path d="M601.332+300.659L601.332+280.205L604.314+280.205L604.65+283.943L604.734+283.943C605.462+282.627+606.33+281.591+607.338+280.835C608.346+280.079+609.424+279.701+610.572+279.701C611.02+279.701+611.419+279.736+611.769+279.806C612.119+279.876+612.448+279.981+612.756+280.121L612.084+283.313C611.748+283.201+611.44+283.117+611.16+283.061C610.88+283.005+610.53+282.977+610.11+282.977C609.242+282.977+608.339+283.32+607.401+284.006C606.463+284.692+605.658+285.903+604.986+287.639L604.986+300.659L601.332+300.659Z" opacity="1" fill="#24639e"/>
<path d="M620.82+301.163C619.672+301.163+618.643+300.932+617.733+300.47C616.823+300.008+616.109+299.336+615.591+298.454C615.073+297.572+614.814+296.529+614.814+295.325C614.814+293.113+615.815+291.405+617.817+290.201C619.819+288.997+622.976+288.171+627.288+287.723C627.288+286.855+627.176+286.036+626.952+285.266C626.728+284.496+626.308+283.873+625.692+283.397C625.076+282.921+624.236+282.683+623.172+282.683C621.996+282.683+620.897+282.914+619.875+283.376C618.853+283.838+617.936+284.335+617.124+284.867L615.696+282.389C616.34+281.969+617.082+281.549+617.922+281.129C618.762+280.709+619.672+280.366+620.652+280.1C621.632+279.834+622.668+279.701+623.76+279.701C625.44+279.701+626.812+280.051+627.876+280.751C628.94+281.451+629.717+282.431+630.207+283.691C630.697+284.951+630.942+286.449+630.942+288.185L630.942+300.659L627.96+300.659L627.624+298.223L627.54+298.223C626.56+299.035+625.51+299.728+624.39+300.302C623.27+300.876+622.08+301.163+620.82+301.163ZM621.87+298.223C622.85+298.223+623.76+297.999+624.6+297.551C625.44+297.103+626.336+296.459+627.288+295.619L627.288+290.075C625.076+290.355+623.319+290.719+622.017+291.167C620.715+291.615+619.784+292.168+619.224+292.826C618.664+293.484+618.384+294.233+618.384+295.073C618.384+296.193+618.727+296.998+619.413+297.488C620.099+297.978+620.918+298.223+621.87+298.223Z" opacity="1" fill="#24639e"/>
<path d="M637.326+300.659L637.326+280.205L640.308+280.205L640.644+283.145L640.728+283.145C641.708+282.165+642.744+281.346+643.836+280.688C644.928+280.03+646.174+279.701+647.574+279.701C649.758+279.701+651.347+280.387+652.341+281.759C653.335+283.131+653.832+285.119+653.832+287.723L653.832+300.659L650.178+300.659L650.178+288.185C650.178+286.309+649.884+284.951+649.296+284.111C648.708+283.271+647.756+282.851+646.44+282.851C645.404+282.851+644.487+283.11+643.689+283.628C642.891+284.146+641.988+284.909+640.98+285.917L640.98+300.659L637.326+300.659Z" opacity="1" fill="#24639e"/>
<path d="M667.272+310.025C665.62+310.025+664.15+309.808+662.862+309.374C661.574+308.94+660.573+308.324+659.859+307.526C659.145+306.728+658.788+305.741+658.788+304.565C658.788+303.669+659.054+302.829+659.586+302.045C660.118+301.261+660.86+300.575+661.812+299.987L661.812+299.819C661.28+299.455+660.839+299+660.489+298.454C660.139+297.908+659.964+297.243+659.964+296.459C659.964+295.591+660.209+294.828+660.699+294.17C661.189+293.512+661.7+293.001+662.232+292.637L662.232+292.469C661.56+291.937+660.944+291.195+660.384+290.243C659.824+289.291+659.544+288.213+659.544+287.009C659.544+285.497+659.901+284.195+660.615+283.103C661.329+282.011+662.274+281.171+663.45+280.583C664.626+279.995+665.9+279.701+667.272+279.701C667.86+279.701+668.399+279.75+668.889+279.848C669.379+279.946+669.82+280.065+670.212+280.205L677.352+280.205L677.352+283.019L673.236+283.019C673.684+283.467+674.062+284.048+674.37+284.762C674.678+285.476+674.832+286.253+674.832+287.093C674.832+288.577+674.496+289.844+673.824+290.894C673.152+291.944+672.242+292.756+671.094+293.33C669.946+293.904+668.672+294.191+667.272+294.191C666.796+294.191+666.299+294.128+665.781+294.002C665.263+293.876+664.766+293.715+664.29+293.519C663.926+293.799+663.625+294.121+663.387+294.485C663.149+294.849+663.03+295.311+663.03+295.871C663.03+296.487+663.282+296.998+663.786+297.404C664.29+297.81+665.214+298.013+666.558+298.013L670.506+298.013C672.886+298.013+674.678+298.405+675.882+299.189C677.086+299.973+677.688+301.219+677.688+302.927C677.688+304.215+677.261+305.391+676.407+306.455C675.553+307.519+674.349+308.38+672.795+309.038C671.241+309.696+669.4+310.025+667.272+310.025ZM667.776+307.547C669.064+307.547+670.177+307.351+671.115+306.959C672.053+306.567+672.788+306.063+673.32+305.447C673.852+304.831+674.118+304.173+674.118+303.473C674.118+302.549+673.775+301.905+673.089+301.541C672.403+301.177+671.402+300.995+670.086+300.995L666.642+300.995C666.25+300.995+665.823+300.974+665.361+300.932C664.899+300.89+664.444+300.813+663.996+300.701C663.268+301.205+662.75+301.744+662.442+302.318C662.134+302.892+661.98+303.459+661.98+304.019C661.98+305.111+662.498+305.972+663.534+306.602C664.57+307.232+665.984+307.547+667.776+307.547ZM667.272+291.755C668.056+291.755+668.763+291.559+669.393+291.167C670.023+290.775+670.534+290.229+670.926+289.529C671.318+288.829+671.514+287.989+671.514+287.009C671.514+286.029+671.325+285.196+670.947+284.51C670.569+283.824+670.058+283.292+669.414+282.914C668.77+282.536+668.056+282.347+667.272+282.347C666.096+282.347+665.102+282.753+664.29+283.565C663.478+284.377+663.072+285.525+663.072+287.009C663.072+287.989+663.261+288.829+663.639+289.529C664.017+290.229+664.528+290.775+665.172+291.167C665.816+291.559+666.516+291.755+667.272+291.755Z" opacity="1" fill="#24639e"/>
<path d="M685.374+301.163C684.478+301.163+683.75+300.974+683.19+300.596C682.63+300.218+682.224+299.679+681.972+298.979C681.72+298.279+681.594+297.411+681.594+296.375L681.594+270.755L685.248+270.755L685.248+296.627C685.248+297.159+685.346+297.544+685.542+297.782C685.738+298.02+685.962+298.139+686.214+298.139C686.326+298.139+686.431+298.132+686.529+298.118C686.627+298.104+686.774+298.083+686.97+298.055L687.432+300.827C687.208+300.911+686.928+300.988+686.592+301.058C686.256+301.128+685.85+301.163+685.374+301.163Z" opacity="1" fill="#24639e"/>
<path d="M692.388+300.659L692.388+280.205L696.042+280.205L696.042+300.659L692.388+300.659ZM694.236+276.089C693.564+276.089+693.004+275.872+692.556+275.438C692.108+275.004+691.884+274.437+691.884+273.737C691.884+273.065+692.108+272.512+692.556+272.078C693.004+271.644+693.564+271.427+694.236+271.427C694.936+271.427+695.503+271.644+695.937+272.078C696.371+272.512+696.588+273.065+696.588+273.737C696.588+274.437+696.371+275.004+695.937+275.438C695.503+275.872+694.936+276.089+694.236+276.089Z" opacity="1" fill="#24639e"/>
<path d="M702.804+300.659L702.804+280.205L705.786+280.205L706.122+283.145L706.206+283.145C707.186+282.165+708.222+281.346+709.314+280.688C710.406+280.03+711.652+279.701+713.052+279.701C715.236+279.701+716.825+280.387+717.819+281.759C718.813+283.131+719.31+285.119+719.31+287.723L719.31+300.659L715.656+300.659L715.656+288.185C715.656+286.309+715.362+284.951+714.774+284.111C714.186+283.271+713.234+282.851+711.918+282.851C710.882+282.851+709.965+283.11+709.167+283.628C708.369+284.146+707.466+284.909+706.458+285.917L706.458+300.659L702.804+300.659Z" opacity="1" fill="#24639e"/>
<path d="M732.75+310.025C731.098+310.025+729.628+309.808+728.34+309.374C727.052+308.94+726.051+308.324+725.337+307.526C724.623+306.728+724.266+305.741+724.266+304.565C724.266+303.669+724.532+302.829+725.064+302.045C725.596+301.261+726.338+300.575+727.29+299.987L727.29+299.819C726.758+299.455+726.317+299+725.967+298.454C725.617+297.908+725.442+297.243+725.442+296.459C725.442+295.591+725.687+294.828+726.177+294.17C726.667+293.512+727.178+293.001+727.71+292.637L727.71+292.469C727.038+291.937+726.422+291.195+725.862+290.243C725.302+289.291+725.022+288.213+725.022+287.009C725.022+285.497+725.379+284.195+726.093+283.103C726.807+282.011+727.752+281.171+728.928+280.583C730.104+279.995+731.378+279.701+732.75+279.701C733.338+279.701+733.877+279.75+734.367+279.848C734.857+279.946+735.298+280.065+735.69+280.205L742.83+280.205L742.83+283.019L738.714+283.019C739.162+283.467+739.54+284.048+739.848+284.762C740.156+285.476+740.31+286.253+740.31+287.093C740.31+288.577+739.974+289.844+739.302+290.894C738.63+291.944+737.72+292.756+736.572+293.33C735.424+293.904+734.15+294.191+732.75+294.191C732.274+294.191+731.777+294.128+731.259+294.002C730.741+293.876+730.244+293.715+729.768+293.519C729.404+293.799+729.103+294.121+728.865+294.485C728.627+294.849+728.508+295.311+728.508+295.871C728.508+296.487+728.76+296.998+729.264+297.404C729.768+297.81+730.692+298.013+732.036+298.013L735.984+298.013C738.364+298.013+740.156+298.405+741.36+299.189C742.564+299.973+743.166+301.219+743.166+302.927C743.166+304.215+742.739+305.391+741.885+306.455C741.031+307.519+739.827+308.38+738.273+309.038C736.719+309.696+734.878+310.025+732.75+310.025ZM733.254+307.547C734.542+307.547+735.655+307.351+736.593+306.959C737.531+306.567+738.266+306.063+738.798+305.447C739.33+304.831+739.596+304.173+739.596+303.473C739.596+302.549+739.253+301.905+738.567+301.541C737.881+301.177+736.88+300.995+735.564+300.995L732.12+300.995C731.728+300.995+731.301+300.974+730.839+300.932C730.377+300.89+729.922+300.813+729.474+300.701C728.746+301.205+728.228+301.744+727.92+302.318C727.612+302.892+727.458+303.459+727.458+304.019C727.458+305.111+727.976+305.972+729.012+306.602C730.048+307.232+731.462+307.547+733.254+307.547ZM732.75+291.755C733.534+291.755+734.241+291.559+734.871+291.167C735.501+290.775+736.012+290.229+736.404+289.529C736.796+288.829+736.992+287.989+736.992+287.009C736.992+286.029+736.803+285.196+736.425+284.51C736.047+283.824+735.536+283.292+734.892+282.914C734.248+282.536+733.534+282.347+732.75+282.347C731.574+282.347+730.58+282.753+729.768+283.565C728.956+284.377+728.55+285.525+728.55+287.009C728.55+287.989+728.739+288.829+729.117+289.529C729.495+290.229+730.006+290.775+730.65+291.167C731.294+291.559+731.994+291.755+732.75+291.755Z" opacity="1" fill="#24639e"/>
<path d="M746.526+307.883L745.644+305.741C746.876+305.209+747.828+304.495+748.5+303.599C749.172+302.703+749.508+301.681+749.508+300.533L749.13+297.383L750.852+299.945C750.628+300.225+750.362+300.414+750.054+300.512C749.746+300.61+749.424+300.659+749.088+300.659C748.388+300.659+747.779+300.449+747.261+300.029C746.743+299.609+746.484+298.993+746.484+298.181C746.484+297.425+746.75+296.823+747.282+296.375C747.814+295.927+748.43+295.703+749.13+295.703C750.11+295.703+750.859+296.074+751.377+296.816C751.895+297.558+752.154+298.587+752.154+299.903C752.154+301.723+751.657+303.326+750.663+304.712C749.669+306.098+748.29+307.155+746.526+307.883Z" opacity="1" fill="#24639e"/>
<path d="M771.432+300.659L762.696+273.107L766.602+273.107L770.97+287.849C771.446+289.473+771.873+290.992+772.251+292.406C772.629+293.82+773.07+295.325+773.574+296.921L773.742+296.921C774.246+295.325+774.694+293.82+775.086+292.406C775.478+290.992+775.912+289.473+776.388+287.849L780.714+273.107L784.452+273.107L775.758+300.659L771.432+300.659Z" opacity="1" fill="#24639e"/>
<path d="M787.854+300.659L787.854+280.205L791.508+280.205L791.508+300.659L787.854+300.659ZM789.702+276.089C789.03+276.089+788.47+275.872+788.022+275.438C787.574+275.004+787.35+274.437+787.35+273.737C787.35+273.065+787.574+272.512+788.022+272.078C788.47+271.644+789.03+271.427+789.702+271.427C790.402+271.427+790.969+271.644+791.403+272.078C791.837+272.512+792.054+273.065+792.054+273.737C792.054+274.437+791.837+275.004+791.403+275.438C790.969+275.872+790.402+276.089+789.702+276.089Z" opacity="1" fill="#24639e"/>
<path d="M803.688+301.163C802.232+301.163+800.832+300.89+799.488+300.344C798.144+299.798+796.996+299.119+796.044+298.307L797.808+295.955C798.704+296.655+799.628+297.229+800.58+297.677C801.532+298.125+802.596+298.349+803.772+298.349C805.088+298.349+806.075+298.048+806.733+297.446C807.391+296.844+807.72+296.123+807.72+295.283C807.72+294.583+807.489+294.002+807.027+293.54C806.565+293.078+805.977+292.686+805.263+292.364C804.549+292.042+803.814+291.741+803.058+291.461C802.106+291.125+801.168+290.719+800.244+290.243C799.32+289.767+798.55+289.151+797.934+288.395C797.318+287.639+797.01+286.687+797.01+285.539C797.01+283.887+797.64+282.501+798.9+281.381C800.16+280.261+801.896+279.701+804.108+279.701C805.424+279.701+806.628+279.932+807.72+280.394C808.812+280.856+809.75+281.395+810.534+282.011L808.812+284.363C808.112+283.831+807.391+283.39+806.649+283.04C805.907+282.69+805.088+282.515+804.192+282.515C802.932+282.515+802.001+282.802+801.399+283.376C800.797+283.95+800.496+284.615+800.496+285.371C800.496+286.015+800.713+286.54+801.147+286.946C801.581+287.352+802.141+287.702+802.827+287.996C803.513+288.29+804.248+288.577+805.032+288.857C805.984+289.221+806.936+289.634+807.888+290.096C808.84+290.558+809.631+291.174+810.261+291.944C810.891+292.714+811.206+293.743+811.206+295.031C811.206+296.151+810.919+297.173+810.345+298.097C809.771+299.021+808.924+299.763+807.804+300.323C806.684+300.883+805.312+301.163+803.688+301.163Z" opacity="1" fill="#24639e"/>
<path d="M821.916+301.163C819.788+301.163+818.213+300.477+817.191+299.105C816.169+297.733+815.658+295.745+815.658+293.141L815.658+280.205L819.312+280.205L819.312+292.679C819.312+294.555+819.613+295.913+820.215+296.753C820.817+297.593+821.776+298.013+823.092+298.013C824.1+298.013+825.01+297.747+825.822+297.215C826.634+296.683+827.502+295.829+828.426+294.653L828.426+280.205L832.08+280.205L832.08+300.659L829.056+300.659L828.762+297.467L828.636+297.467C827.712+298.587+826.718+299.483+825.654+300.155C824.59+300.827+823.344+301.163+821.916+301.163Z" opacity="1" fill="#24639e"/>
<path d="M843.63+301.163C842.482+301.163+841.453+300.932+840.543+300.47C839.633+300.008+838.919+299.336+838.401+298.454C837.883+297.572+837.624+296.529+837.624+295.325C837.624+293.113+838.625+291.405+840.627+290.201C842.629+288.997+845.786+288.171+850.098+287.723C850.098+286.855+849.986+286.036+849.762+285.266C849.538+284.496+849.118+283.873+848.502+283.397C847.886+282.921+847.046+282.683+845.982+282.683C844.806+282.683+843.707+282.914+842.685+283.376C841.663+283.838+840.746+284.335+839.934+284.867L838.506+282.389C839.15+281.969+839.892+281.549+840.732+281.129C841.572+280.709+842.482+280.366+843.462+280.1C844.442+279.834+845.478+279.701+846.57+279.701C848.25+279.701+849.622+280.051+850.686+280.751C851.75+281.451+852.527+282.431+853.017+283.691C853.507+284.951+853.752+286.449+853.752+288.185L853.752+300.659L850.77+300.659L850.434+298.223L850.35+298.223C849.37+299.035+848.32+299.728+847.2+300.302C846.08+300.876+844.89+301.163+843.63+301.163ZM844.68+298.223C845.66+298.223+846.57+297.999+847.41+297.551C848.25+297.103+849.146+296.459+850.098+295.619L850.098+290.075C847.886+290.355+846.129+290.719+844.827+291.167C843.525+291.615+842.594+292.168+842.034+292.826C841.474+293.484+841.194+294.233+841.194+295.073C841.194+296.193+841.537+296.998+842.223+297.488C842.909+297.978+843.728+298.223+844.68+298.223Z" opacity="1" fill="#24639e"/>
<path d="M863.916+301.163C863.02+301.163+862.292+300.974+861.732+300.596C861.172+300.218+860.766+299.679+860.514+298.979C860.262+298.279+860.136+297.411+860.136+296.375L860.136+270.755L863.79+270.755L863.79+296.627C863.79+297.159+863.888+297.544+864.084+297.782C864.28+298.02+864.504+298.139+864.756+298.139C864.868+298.139+864.973+298.132+865.071+298.118C865.169+298.104+865.316+298.083+865.512+298.055L865.974+300.827C865.75+300.911+865.47+300.988+865.134+301.058C864.798+301.128+864.392+301.163+863.916+301.163Z" opacity="1" fill="#24639e"/>
<path d="M870.93+300.659L870.93+280.205L874.584+280.205L874.584+300.659L870.93+300.659ZM872.778+276.089C872.106+276.089+871.546+275.872+871.098+275.438C870.65+275.004+870.426+274.437+870.426+273.737C870.426+273.065+870.65+272.512+871.098+272.078C871.546+271.644+872.106+271.427+872.778+271.427C873.478+271.427+874.045+271.644+874.479+272.078C874.913+272.512+875.13+273.065+875.13+273.737C875.13+274.437+874.913+275.004+874.479+275.438C874.045+275.872+873.478+276.089+872.778+276.089Z" opacity="1" fill="#24639e"/>
<path d="M879.288+300.659L879.288+298.727L889.872+283.187L880.464+283.187L880.464+280.205L894.492+280.205L894.492+282.179L883.866+297.719L894.828+297.719L894.828+300.659L879.288+300.659Z" opacity="1" fill="#24639e"/>
<path d="M899.28+300.659L899.28+280.205L902.934+280.205L902.934+300.659L899.28+300.659ZM901.128+276.089C900.456+276.089+899.896+275.872+899.448+275.438C899+275.004+898.776+274.437+898.776+273.737C898.776+273.065+899+272.512+899.448+272.078C899.896+271.644+900.456+271.427+901.128+271.427C901.828+271.427+902.395+271.644+902.829+272.078C903.263+272.512+903.48+273.065+903.48+273.737C903.48+274.437+903.263+275.004+902.829+275.438C902.395+275.872+901.828+276.089+901.128+276.089Z" opacity="1" fill="#24639e"/>
<path d="M909.696+300.659L909.696+280.205L912.678+280.205L913.014+283.145L913.098+283.145C914.078+282.165+915.114+281.346+916.206+280.688C917.298+280.03+918.544+279.701+919.944+279.701C922.128+279.701+923.717+280.387+924.711+281.759C925.705+283.131+926.202+285.119+926.202+287.723L926.202+300.659L922.548+300.659L922.548+288.185C922.548+286.309+922.254+284.951+921.666+284.111C921.078+283.271+920.126+282.851+918.81+282.851C917.774+282.851+916.857+283.11+916.059+283.628C915.261+284.146+914.358+284.909+913.35+285.917L913.35+300.659L909.696+300.659Z" opacity="1" fill="#24639e"/>
<path d="M939.642+310.025C937.99+310.025+936.52+309.808+935.232+309.374C933.944+308.94+932.943+308.324+932.229+307.526C931.515+306.728+931.158+305.741+931.158+304.565C931.158+303.669+931.424+302.829+931.956+302.045C932.488+301.261+933.23+300.575+934.182+299.987L934.182+299.819C933.65+299.455+933.209+299+932.859+298.454C932.509+297.908+932.334+297.243+932.334+296.459C932.334+295.591+932.579+294.828+933.069+294.17C933.559+293.512+934.07+293.001+934.602+292.637L934.602+292.469C933.93+291.937+933.314+291.195+932.754+290.243C932.194+289.291+931.914+288.213+931.914+287.009C931.914+285.497+932.271+284.195+932.985+283.103C933.699+282.011+934.644+281.171+935.82+280.583C936.996+279.995+938.27+279.701+939.642+279.701C940.23+279.701+940.769+279.75+941.259+279.848C941.749+279.946+942.19+280.065+942.582+280.205L949.722+280.205L949.722+283.019L945.606+283.019C946.054+283.467+946.432+284.048+946.74+284.762C947.048+285.476+947.202+286.253+947.202+287.093C947.202+288.577+946.866+289.844+946.194+290.894C945.522+291.944+944.612+292.756+943.464+293.33C942.316+293.904+941.042+294.191+939.642+294.191C939.166+294.191+938.669+294.128+938.151+294.002C937.633+293.876+937.136+293.715+936.66+293.519C936.296+293.799+935.995+294.121+935.757+294.485C935.519+294.849+935.4+295.311+935.4+295.871C935.4+296.487+935.652+296.998+936.156+297.404C936.66+297.81+937.584+298.013+938.928+298.013L942.876+298.013C945.256+298.013+947.048+298.405+948.252+299.189C949.456+299.973+950.058+301.219+950.058+302.927C950.058+304.215+949.631+305.391+948.777+306.455C947.923+307.519+946.719+308.38+945.165+309.038C943.611+309.696+941.77+310.025+939.642+310.025ZM940.146+307.547C941.434+307.547+942.547+307.351+943.485+306.959C944.423+306.567+945.158+306.063+945.69+305.447C946.222+304.831+946.488+304.173+946.488+303.473C946.488+302.549+946.145+301.905+945.459+301.541C944.773+301.177+943.772+300.995+942.456+300.995L939.012+300.995C938.62+300.995+938.193+300.974+937.731+300.932C937.269+300.89+936.814+300.813+936.366+300.701C935.638+301.205+935.12+301.744+934.812+302.318C934.504+302.892+934.35+303.459+934.35+304.019C934.35+305.111+934.868+305.972+935.904+306.602C936.94+307.232+938.354+307.547+940.146+307.547ZM939.642+291.755C940.426+291.755+941.133+291.559+941.763+291.167C942.393+290.775+942.904+290.229+943.296+289.529C943.688+288.829+943.884+287.989+943.884+287.009C943.884+286.029+943.695+285.196+943.317+284.51C942.939+283.824+942.428+283.292+941.784+282.914C941.14+282.536+940.426+282.347+939.642+282.347C938.466+282.347+937.472+282.753+936.66+283.565C935.848+284.377+935.442+285.525+935.442+287.009C935.442+287.989+935.631+288.829+936.009+289.529C936.387+290.229+936.898+290.775+937.542+291.167C938.186+291.559+938.886+291.755+939.642+291.755Z" opacity="1" fill="#24639e"/>
<path d="M953.418+307.883L952.536+305.741C953.768+305.209+954.72+304.495+955.392+303.599C956.064+302.703+956.4+301.681+956.4+300.533L956.022+297.383L957.744+299.945C957.52+300.225+957.254+300.414+956.946+300.512C956.638+300.61+956.316+300.659+955.98+300.659C955.28+300.659+954.671+300.449+954.153+300.029C953.635+299.609+953.376+298.993+953.376+298.181C953.376+297.425+953.642+296.823+954.174+296.375C954.706+295.927+955.322+295.703+956.022+295.703C957.002+295.703+957.751+296.074+958.269+296.816C958.787+297.558+959.046+298.587+959.046+299.903C959.046+301.723+958.549+303.326+957.555+304.712C956.561+306.098+955.182+307.155+953.418+307.883Z" opacity="1" fill="#24639e"/>
<path d="M973.326+300.659L973.326+273.107L977.736+273.107L982.944+287.639C983.28+288.563+983.609+289.508+983.931+290.474C984.253+291.44+984.568+292.399+984.876+293.351L985.044+293.351C985.38+292.399+985.695+291.44+985.989+290.474C986.283+289.508+986.598+288.563+986.934+287.639L992.1+273.107L996.468+273.107L996.468+300.659L993.066+300.659L993.066+285.833C993.066+285.021+993.094+284.139+993.15+283.187C993.206+282.235+993.269+281.269+993.339+280.289C993.409+279.309+993.472+278.413+993.528+277.601L993.36+277.601L991.176+283.901L986.052+297.887L983.658+297.887L978.534+283.901L976.35+277.601L976.182+277.601C976.238+278.413+976.308+279.309+976.392+280.289C976.476+281.269+976.539+282.235+976.581+283.187C976.623+284.139+976.644+285.021+976.644+285.833L976.644+300.659L973.326+300.659Z" opacity="1" fill="#24639e"/>
<path d="M1011.63+301.163C1009.95+301.163+1008.38+300.743+1006.93+299.903C1005.47+299.063+1004.3+297.845+1003.42+296.249C1002.54+294.653+1002.1+292.721+1002.1+290.453C1002.1+288.185+1002.54+286.246+1003.42+284.636C1004.3+283.026+1005.47+281.801+1006.93+280.961C1008.38+280.121+1009.95+279.701+1011.63+279.701C1013.28+279.701+1014.83+280.121+1016.27+280.961C1017.71+281.801+1018.88+283.026+1019.78+284.636C1020.67+286.246+1021.12+288.185+1021.12+290.453C1021.12+292.721+1020.67+294.653+1019.78+296.249C1018.88+297.845+1017.71+299.063+1016.27+299.903C1014.83+300.743+1013.28+301.163+1011.63+301.163ZM1011.63+298.139C1012.78+298.139+1013.79+297.817+1014.65+297.173C1015.52+296.529+1016.19+295.633+1016.65+294.485C1017.11+293.337+1017.34+291.993+1017.34+290.453C1017.34+288.913+1017.11+287.562+1016.65+286.4C1016.19+285.238+1015.52+284.335+1014.65+283.691C1013.79+283.047+1012.78+282.725+1011.63+282.725C1010.48+282.725+1009.47+283.047+1008.61+283.691C1007.74+284.335+1007.07+285.238+1006.59+286.4C1006.11+287.562+1005.88+288.913+1005.88+290.453C1005.88+291.993+1006.11+293.337+1006.59+294.485C1007.07+295.633+1007.74+296.529+1008.61+297.173C1009.47+297.817+1010.48+298.139+1011.63+298.139Z" opacity="1" fill="#24639e"/>
<path d="M1033.39+301.163C1030.84+301.163+1028.8+300.225+1027.28+298.349C1025.75+296.473+1024.99+293.841+1024.99+290.453C1024.99+288.241+1025.4+286.337+1026.23+284.741C1027.05+283.145+1028.14+281.906+1029.48+281.024C1030.82+280.142+1032.27+279.701+1033.81+279.701C1035.01+279.701+1036.04+279.911+1036.89+280.331C1037.75+280.751+1038.61+281.325+1039.48+282.053L1039.31+278.567L1039.31+270.755L1042.96+270.755L1042.96+300.659L1039.98+300.659L1039.64+298.265L1039.56+298.265C1038.78+299.049+1037.85+299.728+1036.79+300.302C1035.72+300.876+1034.59+301.163+1033.39+301.163ZM1034.23+298.097C1035.15+298.097+1036.03+297.873+1036.85+297.425C1037.68+296.977+1038.5+296.291+1039.31+295.367L1039.31+284.825C1038.47+284.069+1037.66+283.537+1036.87+283.229C1036.09+282.921+1035.28+282.767+1034.44+282.767C1033.4+282.767+1032.45+283.082+1031.58+283.712C1030.71+284.342+1030.02+285.238+1029.5+286.4C1028.98+287.562+1028.72+288.899+1028.72+290.411C1028.72+292.847+1029.21+294.737+1030.17+296.081C1031.14+297.425+1032.49+298.097+1034.23+298.097Z" opacity="1" fill="#24639e"/>
<path d="M1058.08+301.163C1056.26+301.163+1054.61+300.736+1053.13+299.882C1051.64+299.028+1050.46+297.803+1049.58+296.207C1048.7+294.611+1048.25+292.693+1048.25+290.453C1048.25+288.241+1048.7+286.33+1049.58+284.72C1050.46+283.11+1051.61+281.871+1053.02+281.003C1054.44+280.135+1055.93+279.701+1057.49+279.701C1059.23+279.701+1060.71+280.1+1061.95+280.898C1063.18+281.696+1064.11+282.816+1064.74+284.258C1065.37+285.7+1065.68+287.387+1065.68+289.319C1065.68+289.683+1065.67+290.047+1065.64+290.411C1065.61+290.775+1065.57+291.083+1065.52+291.335L1051.11+291.335L1051.07+288.731L1062.49+288.731C1062.49+286.743+1062.07+285.224+1061.21+284.174C1060.36+283.124+1059.13+282.599+1057.54+282.599C1056.58+282.599+1055.66+282.872+1054.76+283.418C1053.87+283.964+1053.13+284.818+1052.56+285.98C1051.99+287.142+1051.7+288.633+1051.7+290.453C1051.7+292.217+1052.01+293.673+1052.64+294.821C1053.27+295.969+1054.11+296.83+1055.14+297.404C1056.18+297.978+1057.31+298.265+1058.54+298.265C1059.52+298.265+1060.42+298.118+1061.23+297.824C1062.04+297.53+1062.83+297.145+1063.58+296.669L1064.89+299.021C1063.99+299.609+1062.98+300.113+1061.84+300.533C1060.71+300.953+1059.45+301.163+1058.08+301.163Z" opacity="1" fill="#24639e"/>
<path d="M1074.42+301.163C1073.52+301.163+1072.8+300.974+1072.24+300.596C1071.68+300.218+1071.27+299.679+1071.02+298.979C1070.77+298.279+1070.64+297.411+1070.64+296.375L1070.64+270.755L1074.29+270.755L1074.29+296.627C1074.29+297.159+1074.39+297.544+1074.59+297.782C1074.78+298.02+1075.01+298.139+1075.26+298.139C1075.37+298.139+1075.48+298.132+1075.58+298.118C1075.67+298.104+1075.82+298.083+1076.02+298.055L1076.48+300.827C1076.25+300.911+1075.97+300.988+1075.64+301.058C1075.3+301.128+1074.9+301.163+1074.42+301.163Z" opacity="1" fill="#24639e"/>
<path d="M1085.21+301.163C1084.32+301.163+1083.59+300.974+1083.03+300.596C1082.47+300.218+1082.06+299.679+1081.81+298.979C1081.56+298.279+1081.43+297.411+1081.43+296.375L1081.43+270.755L1085.09+270.755L1085.09+296.627C1085.09+297.159+1085.19+297.544+1085.38+297.782C1085.58+298.02+1085.8+298.139+1086.05+298.139C1086.17+298.139+1086.27+298.132+1086.37+298.118C1086.47+298.104+1086.61+298.083+1086.81+298.055L1087.27+300.827C1087.05+300.911+1086.77+300.988+1086.43+301.058C1086.1+301.128+1085.69+301.163+1085.21+301.163Z" opacity="1" fill="#24639e"/>
<path d="M1092.23+300.659L1092.23+280.205L1095.88+280.205L1095.88+300.659L1092.23+300.659ZM1094.08+276.089C1093.4+276.089+1092.84+275.872+1092.4+275.438C1091.95+275.004+1091.72+274.437+1091.72+273.737C1091.72+273.065+1091.95+272.512+1092.4+272.078C1092.84+271.644+1093.4+271.427+1094.08+271.427C1094.78+271.427+1095.34+271.644+1095.78+272.078C1096.21+272.512+1096.43+273.065+1096.43+273.737C1096.43+274.437+1096.21+275.004+1095.78+275.438C1095.34+275.872+1094.78+276.089+1094.08+276.089Z" opacity="1" fill="#24639e"/>
<path d="M1102.64+300.659L1102.64+280.205L1105.63+280.205L1105.96+283.145L1106.05+283.145C1107.03+282.165+1108.06+281.346+1109.15+280.688C1110.25+280.03+1111.49+279.701+1112.89+279.701C1115.08+279.701+1116.67+280.387+1117.66+281.759C1118.65+283.131+1119.15+285.119+1119.15+287.723L1119.15+300.659L1115.5+300.659L1115.5+288.185C1115.5+286.309+1115.2+284.951+1114.61+284.111C1114.03+283.271+1113.07+282.851+1111.76+282.851C1110.72+282.851+1109.81+283.11+1109.01+283.628C1108.21+284.146+1107.31+284.909+1106.3+285.917L1106.3+300.659L1102.64+300.659Z" opacity="1" fill="#24639e"/>
<path d="M1132.59+310.025C1130.94+310.025+1129.47+309.808+1128.18+309.374C1126.89+308.94+1125.89+308.324+1125.18+307.526C1124.46+306.728+1124.11+305.741+1124.11+304.565C1124.11+303.669+1124.37+302.829+1124.9+302.045C1125.44+301.261+1126.18+300.575+1127.13+299.987L1127.13+299.819C1126.6+299.455+1126.16+299+1125.81+298.454C1125.46+297.908+1125.28+297.243+1125.28+296.459C1125.28+295.591+1125.53+294.828+1126.02+294.17C1126.51+293.512+1127.02+293.001+1127.55+292.637L1127.55+292.469C1126.88+291.937+1126.26+291.195+1125.7+290.243C1125.14+289.291+1124.86+288.213+1124.86+287.009C1124.86+285.497+1125.22+284.195+1125.93+283.103C1126.65+282.011+1127.59+281.171+1128.77+280.583C1129.94+279.995+1131.22+279.701+1132.59+279.701C1133.18+279.701+1133.72+279.75+1134.21+279.848C1134.7+279.946+1135.14+280.065+1135.53+280.205L1142.67+280.205L1142.67+283.019L1138.55+283.019C1139+283.467+1139.38+284.048+1139.69+284.762C1140+285.476+1140.15+286.253+1140.15+287.093C1140.15+288.577+1139.81+289.844+1139.14+290.894C1138.47+291.944+1137.56+292.756+1136.41+293.33C1135.26+293.904+1133.99+294.191+1132.59+294.191C1132.11+294.191+1131.62+294.128+1131.1+294.002C1130.58+293.876+1130.08+293.715+1129.61+293.519C1129.24+293.799+1128.94+294.121+1128.71+294.485C1128.47+294.849+1128.35+295.311+1128.35+295.871C1128.35+296.487+1128.6+296.998+1129.1+297.404C1129.61+297.81+1130.53+298.013+1131.88+298.013L1135.82+298.013C1138.2+298.013+1140+298.405+1141.2+299.189C1142.4+299.973+1143.01+301.219+1143.01+302.927C1143.01+304.215+1142.58+305.391+1141.73+306.455C1140.87+307.519+1139.67+308.38+1138.11+309.038C1136.56+309.696+1134.72+310.025+1132.59+310.025ZM1133.09+307.547C1134.38+307.547+1135.5+307.351+1136.43+306.959C1137.37+306.567+1138.11+306.063+1138.64+305.447C1139.17+304.831+1139.44+304.173+1139.44+303.473C1139.44+302.549+1139.09+301.905+1138.41+301.541C1137.72+301.177+1136.72+300.995+1135.4+300.995L1131.96+300.995C1131.57+300.995+1131.14+300.974+1130.68+300.932C1130.22+300.89+1129.76+300.813+1129.31+300.701C1128.59+301.205+1128.07+301.744+1127.76+302.318C1127.45+302.892+1127.3+303.459+1127.3+304.019C1127.3+305.111+1127.82+305.972+1128.85+306.602C1129.89+307.232+1131.3+307.547+1133.09+307.547ZM1132.59+291.755C1133.37+291.755+1134.08+291.559+1134.71+291.167C1135.34+290.775+1135.85+290.229+1136.24+289.529C1136.64+288.829+1136.83+287.989+1136.83+287.009C1136.83+286.029+1136.64+285.196+1136.27+284.51C1135.89+283.824+1135.38+283.292+1134.73+282.914C1134.09+282.536+1133.37+282.347+1132.59+282.347C1131.41+282.347+1130.42+282.753+1129.61+283.565C1128.8+284.377+1128.39+285.525+1128.39+287.009C1128.39+287.989+1128.58+288.829+1128.96+289.529C1129.34+290.229+1129.85+290.775+1130.49+291.167C1131.13+291.559+1131.83+291.755+1132.59+291.755Z" opacity="1" fill="#24639e"/>
<path d="M1146.37+307.883L1145.48+305.741C1146.72+305.209+1147.67+304.495+1148.34+303.599C1149.01+302.703+1149.35+301.681+1149.35+300.533L1148.97+297.383L1150.69+299.945C1150.47+300.225+1150.2+300.414+1149.89+300.512C1149.59+300.61+1149.26+300.659+1148.93+300.659C1148.23+300.659+1147.62+300.449+1147.1+300.029C1146.58+299.609+1146.32+298.993+1146.32+298.181C1146.32+297.425+1146.59+296.823+1147.12+296.375C1147.65+295.927+1148.27+295.703+1148.97+295.703C1149.95+295.703+1150.7+296.074+1151.22+296.816C1151.74+297.558+1151.99+298.587+1151.99+299.903C1151.99+301.723+1151.5+303.326+1150.5+304.712C1149.51+306.098+1148.13+307.155+1146.37+307.883Z" opacity="1" fill="#24639e"/>
<path d="M579.03+356.099C576.762+356.099+574.711+355.539+572.877+354.419C571.043+353.299+569.601+351.675+568.551+349.547C567.501+347.419+566.976+344.857+566.976+341.861C566.976+339.621+567.284+337.619+567.9+335.855C568.516+334.091+569.384+332.586+570.504+331.34C571.624+330.094+572.926+329.149+574.41+328.505C575.894+327.861+577.518+327.539+579.282+327.539C580.962+327.539+582.453+327.882+583.755+328.568C585.057+329.254+586.1+330.045+586.884+330.941L584.868+333.335C584.14+332.579+583.328+331.963+582.432+331.487C581.536+331.011+580.5+330.773+579.324+330.773C577.616+330.773+576.125+331.221+574.851+332.117C573.577+333.013+572.583+334.28+571.869+335.918C571.155+337.556+570.798+339.495+570.798+341.735C570.798+344.031+571.141+346.005+571.827+347.657C572.513+349.309+573.486+350.59+574.746+351.5C576.006+352.41+577.49+352.865+579.198+352.865C580.514+352.865+581.683+352.592+582.705+352.046C583.727+351.5+584.658+350.751+585.498+349.799L587.514+352.109C586.45+353.369+585.225+354.349+583.839+355.049C582.453+355.749+580.85+356.099+579.03+356.099Z" opacity="1" fill="#24639e"/>
<path d="M600.282+356.099C598.602+356.099+597.034+355.679+595.578+354.839C594.122+353.999+592.953+352.781+592.071+351.185C591.189+349.589+590.748+347.657+590.748+345.389C590.748+343.121+591.189+341.182+592.071+339.572C592.953+337.962+594.122+336.737+595.578+335.897C597.034+335.057+598.602+334.637+600.282+334.637C601.934+334.637+603.481+335.057+604.923+335.897C606.365+336.737+607.534+337.962+608.43+339.572C609.326+341.182+609.774+343.121+609.774+345.389C609.774+347.657+609.326+349.589+608.43+351.185C607.534+352.781+606.365+353.999+604.923+354.839C603.481+355.679+601.934+356.099+600.282+356.099ZM600.282+353.075C601.43+353.075+602.438+352.753+603.306+352.109C604.174+351.465+604.839+350.569+605.301+349.421C605.763+348.273+605.994+346.929+605.994+345.389C605.994+343.849+605.763+342.498+605.301+341.336C604.839+340.174+604.174+339.271+603.306+338.627C602.438+337.983+601.43+337.661+600.282+337.661C599.134+337.661+598.126+337.983+597.258+338.627C596.39+339.271+595.718+340.174+595.242+341.336C594.766+342.498+594.528+343.849+594.528+345.389C594.528+346.929+594.766+348.273+595.242+349.421C595.718+350.569+596.39+351.465+597.258+352.109C598.126+352.753+599.134+353.075+600.282+353.075Z" opacity="1" fill="#24639e"/>
<path d="M615.066+355.595L615.066+335.141L618.048+335.141L618.384+338.081L618.468+338.081C619.364+337.129+620.344+336.317+621.408+335.645C622.472+334.973+623.62+334.637+624.852+334.637C626.392+334.637+627.61+334.987+628.506+335.687C629.402+336.387+630.06+337.325+630.48+338.501C631.544+337.353+632.622+336.422+633.714+335.708C634.806+334.994+635.968+334.637+637.2+334.637C639.328+334.637+640.896+335.323+641.904+336.695C642.912+338.067+643.416+340.055+643.416+342.659L643.416+355.595L639.804+355.595L639.804+343.121C639.804+341.245+639.503+339.887+638.901+339.047C638.299+338.207+637.354+337.787+636.066+337.787C635.31+337.787+634.519+338.039+633.693+338.543C632.867+339.047+631.992+339.817+631.068+340.853L631.068+355.595L627.414+355.595L627.414+343.121C627.414+341.245+627.12+339.887+626.532+339.047C625.944+338.207+625.006+337.787+623.718+337.787C622.206+337.787+620.54+338.809+618.72+340.853L618.72+355.595L615.066+355.595Z" opacity="1" fill="#24639e"/>
<path d="M649.968+355.595L649.968+335.141L652.95+335.141L653.286+338.081L653.37+338.081C654.266+337.129+655.246+336.317+656.31+335.645C657.374+334.973+658.522+334.637+659.754+334.637C661.294+334.637+662.512+334.987+663.408+335.687C664.304+336.387+664.962+337.325+665.382+338.501C666.446+337.353+667.524+336.422+668.616+335.708C669.708+334.994+670.87+334.637+672.102+334.637C674.23+334.637+675.798+335.323+676.806+336.695C677.814+338.067+678.318+340.055+678.318+342.659L678.318+355.595L674.706+355.595L674.706+343.121C674.706+341.245+674.405+339.887+673.803+339.047C673.201+338.207+672.256+337.787+670.968+337.787C670.212+337.787+669.421+338.039+668.595+338.543C667.769+339.047+666.894+339.817+665.97+340.853L665.97+355.595L662.316+355.595L662.316+343.121C662.316+341.245+662.022+339.887+661.434+339.047C660.846+338.207+659.908+337.787+658.62+337.787C657.108+337.787+655.442+338.809+653.622+340.853L653.622+355.595L649.968+355.595Z" opacity="1" fill="#24639e"/>
<path d="M690.834+356.099C688.706+356.099+687.131+355.413+686.109+354.041C685.087+352.669+684.576+350.681+684.576+348.077L684.576+335.141L688.23+335.141L688.23+347.615C688.23+349.491+688.531+350.849+689.133+351.689C689.735+352.529+690.694+352.949+692.01+352.949C693.018+352.949+693.928+352.683+694.74+352.151C695.552+351.619+696.42+350.765+697.344+349.589L697.344+335.141L700.998+335.141L700.998+355.595L697.974+355.595L697.68+352.403L697.554+352.403C696.63+353.523+695.636+354.419+694.572+355.091C693.508+355.763+692.262+356.099+690.834+356.099Z" opacity="1" fill="#24639e"/>
<path d="M707.802+355.595L707.802+335.141L710.784+335.141L711.12+338.081L711.204+338.081C712.184+337.101+713.22+336.282+714.312+335.624C715.404+334.966+716.65+334.637+718.05+334.637C720.234+334.637+721.823+335.323+722.817+336.695C723.811+338.067+724.308+340.055+724.308+342.659L724.308+355.595L720.654+355.595L720.654+343.121C720.654+341.245+720.36+339.887+719.772+339.047C719.184+338.207+718.232+337.787+716.916+337.787C715.88+337.787+714.963+338.046+714.165+338.564C713.367+339.082+712.464+339.845+711.456+340.853L711.456+355.595L707.802+355.595Z" opacity="1" fill="#24639e"/>
<path d="M730.818+355.595L730.818+335.141L734.472+335.141L734.472+355.595L730.818+355.595ZM732.666+331.025C731.994+331.025+731.434+330.808+730.986+330.374C730.538+329.94+730.314+329.373+730.314+328.673C730.314+328.001+730.538+327.448+730.986+327.014C731.434+326.58+731.994+326.363+732.666+326.363C733.366+326.363+733.933+326.58+734.367+327.014C734.801+327.448+735.018+328.001+735.018+328.673C735.018+329.373+734.801+329.94+734.367+330.374C733.933+330.808+733.366+331.025+732.666+331.025Z" opacity="1" fill="#24639e"/>
<path d="M749.34+356.099C747.52+356.099+745.889+355.679+744.447+354.839C743.005+353.999+741.857+352.781+741.003+351.185C740.149+349.589+739.722+347.657+739.722+345.389C739.722+343.121+740.184+341.182+741.108+339.572C742.032+337.962+743.243+336.737+744.741+335.897C746.239+335.057+747.87+334.637+749.634+334.637C750.978+334.637+752.133+334.875+753.099+335.351C754.065+335.827+754.898+336.387+755.598+337.031L753.75+339.425C753.162+338.893+752.553+338.466+751.923+338.144C751.293+337.822+750.586+337.661+749.802+337.661C748.57+337.661+747.485+337.983+746.547+338.627C745.609+339.271+744.867+340.174+744.321+341.336C743.775+342.498+743.502+343.849+743.502+345.389C743.502+346.929+743.761+348.273+744.279+349.421C744.797+350.569+745.525+351.465+746.463+352.109C747.401+352.753+748.472+353.075+749.676+353.075C750.6+353.075+751.468+352.879+752.28+352.487C753.092+352.095+753.806+351.619+754.422+351.059L755.976+353.495C755.052+354.335+754.023+354.979+752.889+355.427C751.755+355.875+750.572+356.099+749.34+356.099Z" opacity="1" fill="#24639e"/>
<path d="M765.132+356.099C763.984+356.099+762.955+355.868+762.045+355.406C761.135+354.944+760.421+354.272+759.903+353.39C759.385+352.508+759.126+351.465+759.126+350.261C759.126+348.049+760.127+346.341+762.129+345.137C764.131+343.933+767.288+343.107+771.6+342.659C771.6+341.791+771.488+340.972+771.264+340.202C771.04+339.432+770.62+338.809+770.004+338.333C769.388+337.857+768.548+337.619+767.484+337.619C766.308+337.619+765.209+337.85+764.187+338.312C763.165+338.774+762.248+339.271+761.436+339.803L760.008+337.325C760.652+336.905+761.394+336.485+762.234+336.065C763.074+335.645+763.984+335.302+764.964+335.036C765.944+334.77+766.98+334.637+768.072+334.637C769.752+334.637+771.124+334.987+772.188+335.687C773.252+336.387+774.029+337.367+774.519+338.627C775.009+339.887+775.254+341.385+775.254+343.121L775.254+355.595L772.272+355.595L771.936+353.159L771.852+353.159C770.872+353.971+769.822+354.664+768.702+355.238C767.582+355.812+766.392+356.099+765.132+356.099ZM766.182+353.159C767.162+353.159+768.072+352.935+768.912+352.487C769.752+352.039+770.648+351.395+771.6+350.555L771.6+345.011C769.388+345.291+767.631+345.655+766.329+346.103C765.027+346.551+764.096+347.104+763.536+347.762C762.976+348.42+762.696+349.169+762.696+350.009C762.696+351.129+763.039+351.934+763.725+352.424C764.411+352.914+765.23+353.159+766.182+353.159Z" opacity="1" fill="#24639e"/>
<path d="M788.148+356.099C785.964+356.099+784.438+355.462+783.57+354.188C782.702+352.914+782.268+351.255+782.268+349.211L782.268+338.123L779.244+338.123L779.244+335.351L782.436+335.141L782.856+329.429L785.88+329.429L785.88+335.141L791.382+335.141L791.382+338.123L785.88+338.123L785.88+349.253C785.88+350.485+786.118+351.444+786.594+352.13C787.07+352.816+787.882+353.159+789.03+353.159C789.394+353.159+789.786+353.103+790.206+352.991C790.626+352.879+791.004+352.753+791.34+352.613L792.012+355.343C791.452+355.539+790.836+355.714+790.164+355.868C789.492+356.022+788.82+356.099+788.148+356.099Z" opacity="1" fill="#24639e"/>
<path d="M795.96+355.595L795.96+335.141L799.614+335.141L799.614+355.595L795.96+355.595ZM797.808+331.025C797.136+331.025+796.576+330.808+796.128+330.374C795.68+329.94+795.456+329.373+795.456+328.673C795.456+328.001+795.68+327.448+796.128+327.014C796.576+326.58+797.136+326.363+797.808+326.363C798.508+326.363+799.075+326.58+799.509+327.014C799.943+327.448+800.16+328.001+800.16+328.673C800.16+329.373+799.943+329.94+799.509+330.374C799.075+330.808+798.508+331.025+797.808+331.025Z" opacity="1" fill="#24639e"/>
<path d="M806.376+355.595L806.376+335.141L809.358+335.141L809.694+338.081L809.778+338.081C810.758+337.101+811.794+336.282+812.886+335.624C813.978+334.966+815.224+334.637+816.624+334.637C818.808+334.637+820.397+335.323+821.391+336.695C822.385+338.067+822.882+340.055+822.882+342.659L822.882+355.595L819.228+355.595L819.228+343.121C819.228+341.245+818.934+339.887+818.346+339.047C817.758+338.207+816.806+337.787+815.49+337.787C814.454+337.787+813.537+338.046+812.739+338.564C811.941+339.082+811.038+339.845+810.03+340.853L810.03+355.595L806.376+355.595Z" opacity="1" fill="#24639e"/>
<path d="M836.322+364.961C834.67+364.961+833.2+364.744+831.912+364.31C830.624+363.876+829.623+363.26+828.909+362.462C828.195+361.664+827.838+360.677+827.838+359.501C827.838+358.605+828.104+357.765+828.636+356.981C829.168+356.197+829.91+355.511+830.862+354.923L830.862+354.755C830.33+354.391+829.889+353.936+829.539+353.39C829.189+352.844+829.014+352.179+829.014+351.395C829.014+350.527+829.259+349.764+829.749+349.106C830.239+348.448+830.75+347.937+831.282+347.573L831.282+347.405C830.61+346.873+829.994+346.131+829.434+345.179C828.874+344.227+828.594+343.149+828.594+341.945C828.594+340.433+828.951+339.131+829.665+338.039C830.379+336.947+831.324+336.107+832.5+335.519C833.676+334.931+834.95+334.637+836.322+334.637C836.91+334.637+837.449+334.686+837.939+334.784C838.429+334.882+838.87+335.001+839.262+335.141L846.402+335.141L846.402+337.955L842.286+337.955C842.734+338.403+843.112+338.984+843.42+339.698C843.728+340.412+843.882+341.189+843.882+342.029C843.882+343.513+843.546+344.78+842.874+345.83C842.202+346.88+841.292+347.692+840.144+348.266C838.996+348.84+837.722+349.127+836.322+349.127C835.846+349.127+835.349+349.064+834.831+348.938C834.313+348.812+833.816+348.651+833.34+348.455C832.976+348.735+832.675+349.057+832.437+349.421C832.199+349.785+832.08+350.247+832.08+350.807C832.08+351.423+832.332+351.934+832.836+352.34C833.34+352.746+834.264+352.949+835.608+352.949L839.556+352.949C841.936+352.949+843.728+353.341+844.932+354.125C846.136+354.909+846.738+356.155+846.738+357.863C846.738+359.151+846.311+360.327+845.457+361.391C844.603+362.455+843.399+363.316+841.845+363.974C840.291+364.632+838.45+364.961+836.322+364.961ZM836.826+362.483C838.114+362.483+839.227+362.287+840.165+361.895C841.103+361.503+841.838+360.999+842.37+360.383C842.902+359.767+843.168+359.109+843.168+358.409C843.168+357.485+842.825+356.841+842.139+356.477C841.453+356.113+840.452+355.931+839.136+355.931L835.692+355.931C835.3+355.931+834.873+355.91+834.411+355.868C833.949+355.826+833.494+355.749+833.046+355.637C832.318+356.141+831.8+356.68+831.492+357.254C831.184+357.828+831.03+358.395+831.03+358.955C831.03+360.047+831.548+360.908+832.584+361.538C833.62+362.168+835.034+362.483+836.826+362.483ZM836.322+346.691C837.106+346.691+837.813+346.495+838.443+346.103C839.073+345.711+839.584+345.165+839.976+344.465C840.368+343.765+840.564+342.925+840.564+341.945C840.564+340.965+840.375+340.132+839.997+339.446C839.619+338.76+839.108+338.228+838.464+337.85C837.82+337.472+837.106+337.283+836.322+337.283C835.146+337.283+834.152+337.689+833.34+338.501C832.528+339.313+832.122+340.461+832.122+341.945C832.122+342.925+832.311+343.765+832.689+344.465C833.067+345.165+833.578+345.711+834.222+346.103C834.866+346.495+835.566+346.691+836.322+346.691Z" opacity="1" fill="#24639e"/>
<path d="M866.016+356.099C863.468+356.099+861.431+355.161+859.905+353.285C858.379+351.409+857.616+348.777+857.616+345.389C857.616+343.177+858.029+341.273+858.855+339.677C859.681+338.081+860.766+336.842+862.11+335.96C863.454+335.078+864.896+334.637+866.436+334.637C867.64+334.637+868.669+334.847+869.523+335.267C870.377+335.687+871.238+336.261+872.106+336.989L871.938+333.503L871.938+325.691L875.592+325.691L875.592+355.595L872.61+355.595L872.274+353.201L872.19+353.201C871.406+353.985+870.482+354.664+869.418+355.238C868.354+355.812+867.22+356.099+866.016+356.099ZM866.856+353.033C867.78+353.033+868.655+352.809+869.481+352.361C870.307+351.913+871.126+351.227+871.938+350.303L871.938+339.761C871.098+339.005+870.286+338.473+869.502+338.165C868.718+337.857+867.906+337.703+867.066+337.703C866.03+337.703+865.078+338.018+864.21+338.648C863.342+339.278+862.649+340.174+862.131+341.336C861.613+342.498+861.354+343.835+861.354+345.347C861.354+347.783+861.837+349.673+862.803+351.017C863.769+352.361+865.12+353.033+866.856+353.033Z" opacity="1" fill="#24639e"/>
<path d="M887.142+356.099C885.994+356.099+884.965+355.868+884.055+355.406C883.145+354.944+882.431+354.272+881.913+353.39C881.395+352.508+881.136+351.465+881.136+350.261C881.136+348.049+882.137+346.341+884.139+345.137C886.141+343.933+889.298+343.107+893.61+342.659C893.61+341.791+893.498+340.972+893.274+340.202C893.05+339.432+892.63+338.809+892.014+338.333C891.398+337.857+890.558+337.619+889.494+337.619C888.318+337.619+887.219+337.85+886.197+338.312C885.175+338.774+884.258+339.271+883.446+339.803L882.018+337.325C882.662+336.905+883.404+336.485+884.244+336.065C885.084+335.645+885.994+335.302+886.974+335.036C887.954+334.77+888.99+334.637+890.082+334.637C891.762+334.637+893.134+334.987+894.198+335.687C895.262+336.387+896.039+337.367+896.529+338.627C897.019+339.887+897.264+341.385+897.264+343.121L897.264+355.595L894.282+355.595L893.946+353.159L893.862+353.159C892.882+353.971+891.832+354.664+890.712+355.238C889.592+355.812+888.402+356.099+887.142+356.099ZM888.192+353.159C889.172+353.159+890.082+352.935+890.922+352.487C891.762+352.039+892.658+351.395+893.61+350.555L893.61+345.011C891.398+345.291+889.641+345.655+888.339+346.103C887.037+346.551+886.106+347.104+885.546+347.762C884.986+348.42+884.706+349.169+884.706+350.009C884.706+351.129+885.049+351.934+885.735+352.424C886.421+352.914+887.24+353.159+888.192+353.159Z" opacity="1" fill="#24639e"/>
<path d="M910.158+356.099C907.974+356.099+906.448+355.462+905.58+354.188C904.712+352.914+904.278+351.255+904.278+349.211L904.278+338.123L901.254+338.123L901.254+335.351L904.446+335.141L904.866+329.429L907.89+329.429L907.89+335.141L913.392+335.141L913.392+338.123L907.89+338.123L907.89+349.253C907.89+350.485+908.128+351.444+908.604+352.13C909.08+352.816+909.892+353.159+911.04+353.159C911.404+353.159+911.796+353.103+912.216+352.991C912.636+352.879+913.014+352.753+913.35+352.613L914.022+355.343C913.462+355.539+912.846+355.714+912.174+355.868C911.502+356.022+910.83+356.099+910.158+356.099Z" opacity="1" fill="#24639e"/>
<path d="M922.716+356.099C921.568+356.099+920.539+355.868+919.629+355.406C918.719+354.944+918.005+354.272+917.487+353.39C916.969+352.508+916.71+351.465+916.71+350.261C916.71+348.049+917.711+346.341+919.713+345.137C921.715+343.933+924.872+343.107+929.184+342.659C929.184+341.791+929.072+340.972+928.848+340.202C928.624+339.432+928.204+338.809+927.588+338.333C926.972+337.857+926.132+337.619+925.068+337.619C923.892+337.619+922.793+337.85+921.771+338.312C920.749+338.774+919.832+339.271+919.02+339.803L917.592+337.325C918.236+336.905+918.978+336.485+919.818+336.065C920.658+335.645+921.568+335.302+922.548+335.036C923.528+334.77+924.564+334.637+925.656+334.637C927.336+334.637+928.708+334.987+929.772+335.687C930.836+336.387+931.613+337.367+932.103+338.627C932.593+339.887+932.838+341.385+932.838+343.121L932.838+355.595L929.856+355.595L929.52+353.159L929.436+353.159C928.456+353.971+927.406+354.664+926.286+355.238C925.166+355.812+923.976+356.099+922.716+356.099ZM923.766+353.159C924.746+353.159+925.656+352.935+926.496+352.487C927.336+352.039+928.232+351.395+929.184+350.555L929.184+345.011C926.972+345.291+925.215+345.655+923.913+346.103C922.611+346.551+921.68+347.104+921.12+347.762C920.56+348.42+920.28+349.169+920.28+350.009C920.28+351.129+920.623+351.934+921.309+352.424C921.995+352.914+922.814+353.159+923.766+353.159Z" opacity="1" fill="#24639e"/>
</g>
</g>
</g>
</svg>
