<?xml version="1.0" encoding="UTF-8" standalone="no"?> <!-- Created with Vectornator for iOS (http://vectornator.io/) --><!DOCTYPE svg PUBLIC "-//W3C//DTD SVG 1.1//EN" "http://www.w3.org/Graphics/SVG/1.1/DTD/svg11.dtd">
<svg height="100%" style="fill-rule:nonzero;clip-rule:evenodd;stroke-linecap:round;stroke-linejoin:round;" xmlns:xlink="http://www.w3.org/1999/xlink" xmlns="http://www.w3.org/2000/svg" xml:space="preserve" width="100%" xmlns:vectornator="http://vectornator.io" version="1.1" viewBox="0 0 600 600">
<metadata>
<vectornator:setting key="DimensionsVisible" value="1"/>
<vectornator:setting key="PencilOnly" value="0"/>
<vectornator:setting key="SnapToPoints" value="0"/>
<vectornator:setting key="OutlineMode" value="0"/>
<vectornator:setting key="CMYKEnabledKey" value="0"/>
<vectornator:setting key="RulersVisible" value="1"/>
<vectornator:setting key="SnapToEdges" value="0"/>
<vectornator:setting key="GuidesVisible" value="1"/>
<vectornator:setting key="DisplayWhiteBackground" value="0"/>
<vectornator:setting key="doHistoryDisabled" value="0"/>
<vectornator:setting key="SnapToGuides" value="1"/>
<vectornator:setting key="TimeLapseWatermarkDisabled" value="0"/>
<vectornator:setting key="Units" value="Pixels"/>
<vectornator:setting key="DynamicGuides" value="0"/>
<vectornator:setting key="IsolateActiveLayer" value="0"/>
<vectornator:setting key="SnapToGrid" value="0"/>
</metadata>
<defs/>
<g id="Background" vectornator:layerName="Background">
<path stroke="#000000" stroke-width="0.1" d="M15+57C15+33.804+33.804+15+57+15C80.196+15+99+33.804+99+57C99+80.196+80.196+99+57+99C33.804+99+15+80.196+15+57Z" fill="#123c69" stroke-linecap="butt" opacity="0" stroke-linejoin="miter"/>
</g>
<g id="Layer 2" vectornator:layerName="Layer 2" visibility="hidden">
<path d="M67+76.5035L57+74.0938L47+76.5035C43.686+76.5035+41+79.7421+41+83.7325L41+93.3712C41+97.3616+43.686+100.6+47+100.6L67+100.6C70.314+100.6+73+97.3616+73+93.3712L73+83.7325C73+79.7421+70.314+76.5035+67+76.5035Z" opacity="1" fill="#fff5ed"/>
<path stroke="#fff5ed" stroke-width="5.32546" d="M49+74.0938L65+74.0938" fill="#fff5ed" stroke-linecap="round" opacity="1" stroke-linejoin="round"/>
</g>
<g id="Layer 1" vectornator:layerName="Layer 1" visibility="hidden">
<path d="M45.6045+41.836C46.6057+37.6968+48.2332+34.0377+49.4199+31.6472C50.6067+29.2568+51.2893+28.0953+51.7495+27.5007C51.8686+27.3105+52.0193+27.14+52.2137+27.041C52.3565+26.9538+52.4596+26.9301+52.5627+26.9063L52.5627+26.9063C52.6142+26.8945+52.6975+26.9024+52.7491+26.8906C53.2883+26.875+53.7362+27.2876+53.8549+27.8031C53.9896+28.1521+54.8137+29.3738+55.5469+30.3179C56.1889+30.9843+56.8428+31.7024+57.4769+32.4521C57.5086+32.4719+57.5086+32.4719+57.5403+32.4918C62.5139+38.2953+67.8744+47.4298+65.0858+57.9522C64.8792+58.7055+64.641+59.4389+64.3908+60.1208C64.371+60.1525+64.363+60.2358+64.3432+60.2675C64.2955+60.4142+64.228+60.5926+64.1487+60.7195C64.109+60.7829+64.101+60.8661+64.0415+60.9613C63.9541+61.1714+63.8668+61.3815+63.7795+61.5916C63.72+61.6868+63.6723+61.8335+63.6128+61.9286C63.5532+62.0237+63.5254+62.1387+63.4858+62.2021C63.4183+62.3805+63.3389+62.5074+63.2714+62.6858C63.2317+62.7492+63.1722+62.8443+63.1524+62.8761C63.0531+63.0346+62.9856+63.213+62.9063+63.3399C62.8864+63.3716+62.8468+63.435+62.8269+63.4667C62.7079+63.657+62.6205+63.8671+62.5213+64.0257L62.5213+64.0257C62.4023+64.2159+62.2832+64.4062+62.184+64.5648C62.1642+64.5965+62.1642+64.5965+62.1443+64.6282C61.3308+65.9284+60.5492+66.8955+60.0573+67.4703C60.0364+69.6194+59.8529+71.8874+59.4434+74.2347C59.336+74.8294+58.7569+75.2613+58.1621+75.154C57.9956+75.138+57.8688+75.0587+57.7736+74.9991C57.3931+74.761+57.1831+74.3208+57.2627+73.841C57.6205+71.8586+57.784+69.9752+57.8245+68.1472C56.5202+67.5518+55.3191+66.9327+54.2091+66.2382C47.8667+62.2699+44.6576+56.4673+44.7089+48.9096C44.7012+48.287+45.2368+47.7837+45.8395+47.8078C46.462+47.8002+46.9654+48.3357+46.9413+48.9384C46.9299+56.0798+50.159+61.4978+56.6562+65.0776C57.1835+65.3633+57.7943+64.9513+57.7669+64.3604C57.4045+59.368+56.1894+54.6805+54.9704+49.8582C53.7119+44.7465+52.3465+39.5236+51.8379+33.4248C51.8063+33.0521+51.2949+32.9527+51.1282+33.2897C50.0605+35.4899+48.8854+38.2848+48.0393+41.3297C47.9559+41.6746+48.0073+42.0156+48.2332+42.2893L50.4284+45.3397C50.7851+45.8276+50.6816+46.5571+50.162+46.8939C49.7654+47.1752+49.2776+47.179+48.8971+46.9409C48.7702+46.8615+48.6632+46.7504+48.5879+46.6592L45.7864+42.7442C45.5922+42.4903+45.5409+42.1493+45.6045+41.836Z" opacity="1" fill="#fff5ed"/>
</g>
<g id="Layer 3" vectornator:layerName="Layer 3">
<path d="M-8.93076e-06-2.26985e-05L600-2.26985e-05L600-2.26985e-05L600+600L600+600L-8.93076e-06+600L-8.93076e-06+600L-8.93076e-06-2.26985e-05L-8.93076e-06-2.26985e-05Z" opacity="1" fill="#fff5ed"/>
<path d="M464.227+81.7207C461.35+82.147+458.683+83.5087+456.552+85.6402C453.141+88.198+437.821+94.9959+425.032+99.6851C414.801+102.243+404.007+105.257+393.349+108.667C392.923+108.667+392.959+108.667+392.533+108.667C309.405+134.671+202.352+190.543+165.69+309.053C163.133+317.579+161.026+326.104+159.321+334.203C159.321+334.63+158.994+335.41+158.994+335.837C158.568+337.542+158.015+339.684+158.015+341.389C158.015+342.242+157.688+343.213+157.688+344.492C157.262+347.05+156.808+349.61+156.381+352.168C156.381+353.447+155.891+355.135+155.891+356.414C155.891+357.693+155.565+358.828+155.565+359.68C155.139+361.812+155.175+363.591+154.748+365.723C154.748+366.575+154.748+367.91+154.748+368.336C154.748+370.467+154.258+372.51+154.258+374.215C154.258+374.641+154.258+375.585+154.258+376.012C154.258+378.569+153.768+381.066+153.768+383.197C153.768+385.755+153.768+388.252+153.768+390.383C153.768+390.81+153.768+390.937+153.768+391.363C153.768+408.841+155.593+422.849+156.871+431.375C144.082+452.263+132.153+475.305+121.922+500.457C119.364+506.851+122.224+514.557+128.618+517.115C130.323+517.967+132.075+517.931+133.354+517.931C138.47+517.931+143.145+514.881+145.276+509.765C153.802+488.451+163.689+469.367+174.346+451.463C190.545+453.594+205.807+454.892+220.727+454.892C305.986+454.892+372.169+418.142+417.356+344.819C420.349+340.164+418.818+334.786+415.56+330.774C415.56+330.774+392.623+299.823+393.349+299.581L444.14+278.84C447.55+277.561+450.047+274.575+451.326+271.164C466.672+225.124+473.165+179.926+476.149+149.659C479.133+119.392+479.452+103.965+478.599+95.439C478.599+92.8812+478.245+90.3847+476.966+88.2532C476.113+86.548+475.206+85.6762+474.353+84.8236C473.927+84.3973+473.146+83.9434+472.72+83.5171C470.162+81.8119+467.105+81.2944+464.227+81.7207Z" opacity="1" fill="#123c69"/>
<path d="M203.919+492.291C192.241+492.291+183.393+498.054+183.393+505.439C183.393+512.825+192.241+518.421+203.919+518.421L478.656+518.421C490.333+518.421+499.182+512.825+499.182+505.439C499.182+498.054+490.333+492.291+478.656+492.291L203.919+492.291Z" opacity="1" fill="#123c69"/>
</g>
</svg>
