<?xml version="1.0" encoding="UTF-8" standalone="no"?> <!-- Created with Vectornator for iOS (http://vectornator.io/) --><!DOCTYPE svg PUBLIC "-//W3C//DTD SVG 1.1//EN" "http://www.w3.org/Graphics/SVG/1.1/DTD/svg11.dtd">
<svg height="100%" style="fill-rule:nonzero;clip-rule:evenodd;stroke-linecap:round;stroke-linejoin:round;" xmlns:xlink="http://www.w3.org/1999/xlink" xmlns="http://www.w3.org/2000/svg" xml:space="preserve" width="100%" xmlns:vectornator="http://vectornator.io" version="1.1" viewBox="0 0 1200 628">
<metadata>
<vectornator:setting key="DimensionsVisible" value="1"/>
<vectornator:setting key="PencilOnly" value="0"/>
<vectornator:setting key="SnapToPoints" value="0"/>
<vectornator:setting key="OutlineMode" value="0"/>
<vectornator:setting key="CMYKEnabledKey" value="0"/>
<vectornator:setting key="RulersVisible" value="1"/>
<vectornator:setting key="SnapToEdges" value="0"/>
<vectornator:setting key="GuidesVisible" value="1"/>
<vectornator:setting key="DisplayWhiteBackground" value="0"/>
<vectornator:setting key="doHistoryDisabled" value="0"/>
<vectornator:setting key="SnapToGuides" value="1"/>
<vectornator:setting key="TimeLapseWatermarkDisabled" value="0"/>
<vectornator:setting key="Units" value="Pixels"/>
<vectornator:setting key="DynamicGuides" value="0"/>
<vectornator:setting key="IsolateActiveLayer" value="0"/>
<vectornator:setting key="SnapToGrid" value="0"/>
</metadata>
<defs/>
<g id="Background" vectornator:layerName="Background">
<path d="M600-2.26985e-05L1200-2.26985e-05L1200-2.26985e-05L1200+628L1200+628L600+628L600+628L600-2.26985e-05L600-2.26985e-05Z" opacity="1" fill="#123c69"/>
</g>
<g id="Background left" vectornator:layerName="Background left">
<path d="M0-0L0+628L600+628L600-0L0-0ZM50+64L550+64L550+564L50+564L50+64Z" opacity="1" fill="#fff5ed"/>
</g>
<g id="Layer 3" vectornator:layerName="Layer 3">
<g opacity="1">
<path d="M766.543+350.2L766.543+292L746.843+292L746.843+284.6L795.043+284.6L795.043+292L775.343+292L775.343+350.2L766.543+350.2Z" opacity="1" fill="#fff5ed"/>
<path d="M805.943+350.2L805.943+301.5L814.643+301.5L814.643+350.2L805.943+350.2ZM810.343+291.7C808.743+291.7+807.41+291.183+806.343+290.15C805.276+289.117+804.743+287.767+804.743+286.1C804.743+284.5+805.276+283.183+806.343+282.15C807.41+281.117+808.743+280.6+810.343+280.6C812.01+280.6+813.36+281.117+814.393+282.15C815.426+283.183+815.943+284.5+815.943+286.1C815.943+287.767+815.426+289.117+814.393+290.15C813.36+291.183+812.01+291.7+810.343+291.7Z" opacity="1" fill="#fff5ed"/>
<path d="M847.343+351.4C841.276+351.4+836.426+349.167+832.793+344.7C829.16+340.233+827.343+333.967+827.343+325.9C827.343+320.633+828.326+316.1+830.293+312.3C832.26+308.5+834.843+305.55+838.043+303.45C841.243+301.35+844.676+300.3+848.343+300.3C851.21+300.3+853.66+300.8+855.693+301.8C857.726+302.8+859.776+304.167+861.843+305.9L861.443+297.6L861.443+279L870.143+279L870.143+350.2L863.043+350.2L862.243+344.5L862.043+344.5C860.176+346.367+857.976+347.983+855.443+349.35C852.91+350.717+850.21+351.4+847.343+351.4ZM849.343+344.1C851.543+344.1+853.626+343.567+855.593+342.5C857.56+341.433+859.51+339.8+861.443+337.6L861.443+312.5C859.443+310.7+857.51+309.433+855.643+308.7C853.776+307.967+851.843+307.6+849.843+307.6C847.376+307.6+845.11+308.35+843.043+309.85C840.976+311.35+839.326+313.483+838.093+316.25C836.86+319.017+836.243+322.2+836.243+325.8C836.243+331.6+837.393+336.1+839.693+339.3C841.993+342.5+845.21+344.1+849.343+344.1Z" opacity="1" fill="#fff5ed"/>
<path d="M887.443+371C886.31+371+885.276+370.9+884.343+370.7C883.41+370.5+882.51+370.267+881.643+370L883.343+363.2C883.876+363.333+884.476+363.483+885.143+363.65C885.81+363.817+886.443+363.9+887.043+363.9C889.776+363.9+892.026+362.933+893.793+361C895.56+359.067+896.91+356.633+897.843+353.7L898.943+350.2L879.443+301.5L888.343+301.5L898.043+328C898.843+330.133+899.643+332.383+900.443+334.75C901.243+337.117+902.01+339.467+902.743+341.8L903.143+341.8C903.876+339.533+904.576+337.217+905.243+334.85C905.91+332.483+906.576+330.2+907.243+328L915.643+301.5L924.143+301.5L905.943+354C904.743+357.267+903.343+360.183+901.743+362.75C900.143+365.317+898.193+367.333+895.893+368.8C893.593+370.267+890.776+371+887.443+371Z" opacity="1" fill="#fff5ed"/>
<path d="M967.843+350.2L967.843+292L948.143+292L948.143+284.6L996.343+284.6L996.343+292L976.643+292L976.643+350.2L967.843+350.2Z" opacity="1" fill="#fff5ed"/>
<path d="M1018.54+351.4C1015.81+351.4+1013.36+350.85+1011.19+349.75C1009.03+348.65+1007.33+347.05+1006.09+344.95C1004.86+342.85+1004.24+340.367+1004.24+337.5C1004.24+332.233+1006.63+328.167+1011.39+325.3C1016.16+322.433+1023.68+320.467+1033.94+319.4C1033.94+317.333+1033.68+315.383+1033.14+313.55C1032.61+311.717+1031.61+310.233+1030.14+309.1C1028.68+307.967+1026.68+307.4+1024.14+307.4C1021.34+307.4+1018.73+307.95+1016.29+309.05C1013.86+310.15+1011.68+311.333+1009.74+312.6L1006.34+306.7C1007.88+305.7+1009.64+304.7+1011.64+303.7C1013.64+302.7+1015.81+301.883+1018.14+301.25C1020.48+300.617+1022.94+300.3+1025.54+300.3C1029.54+300.3+1032.81+301.133+1035.34+302.8C1037.88+304.467+1039.73+306.8+1040.89+309.8C1042.06+312.8+1042.64+316.367+1042.64+320.5L1042.64+350.2L1035.54+350.2L1034.74+344.4L1034.54+344.4C1032.21+346.333+1029.71+347.983+1027.04+349.35C1024.38+350.717+1021.54+351.4+1018.54+351.4ZM1021.04+344.4C1023.38+344.4+1025.54+343.867+1027.54+342.8C1029.54+341.733+1031.68+340.2+1033.94+338.2L1033.94+325C1028.68+325.667+1024.49+326.533+1021.39+327.6C1018.29+328.667+1016.08+329.983+1014.74+331.55C1013.41+333.117+1012.74+334.9+1012.74+336.9C1012.74+339.567+1013.56+341.483+1015.19+342.65C1016.83+343.817+1018.78+344.4+1021.04+344.4Z" opacity="1" fill="#fff5ed"/>
<path d="M1066.84+351.4C1064.71+351.4+1062.98+350.95+1061.64+350.05C1060.31+349.15+1059.34+347.867+1058.74+346.2C1058.14+344.533+1057.84+342.467+1057.84+340L1057.84+279L1066.54+279L1066.54+340.6C1066.54+341.867+1066.78+342.783+1067.24+343.35C1067.71+343.917+1068.24+344.2+1068.84+344.2C1069.11+344.2+1069.36+344.183+1069.59+344.15C1069.83+344.117+1070.18+344.067+1070.64+344L1071.74+350.6C1071.21+350.8+1070.54+350.983+1069.74+351.15C1068.94+351.317+1067.98+351.4+1066.84+351.4Z" opacity="1" fill="#fff5ed"/>
<path d="M1103.34+351.4C1099.01+351.4+1095.08+350.383+1091.54+348.35C1088.01+346.317+1085.19+343.4+1083.09+339.6C1080.99+335.8+1079.94+331.233+1079.94+325.9C1079.94+320.633+1080.99+316.083+1083.09+312.25C1085.19+308.417+1087.93+305.467+1091.29+303.4C1094.66+301.333+1098.21+300.3+1101.94+300.3C1106.08+300.3+1109.61+301.25+1112.54+303.15C1115.48+305.05+1117.69+307.717+1119.19+311.15C1120.69+314.583+1121.44+318.6+1121.44+323.2C1121.44+324.067+1121.41+324.933+1121.34+325.8C1121.28+326.667+1121.18+327.4+1121.04+328L1086.74+328L1086.64+321.8L1113.84+321.8C1113.84+317.067+1112.83+313.45+1110.79+310.95C1108.76+308.45+1105.84+307.2+1102.04+307.2C1099.78+307.2+1097.58+307.85+1095.44+309.15C1093.31+310.45+1091.56+312.483+1090.19+315.25C1088.83+318.017+1088.14+321.567+1088.14+325.9C1088.14+330.1+1088.89+333.567+1090.39+336.3C1091.89+339.033+1093.88+341.083+1096.34+342.45C1098.81+343.817+1101.51+344.5+1104.44+344.5C1106.78+344.5+1108.91+344.15+1110.84+343.45C1112.78+342.75+1114.64+341.833+1116.44+340.7L1119.54+346.3C1117.41+347.7+1114.99+348.9+1112.29+349.9C1109.59+350.9+1106.61+351.4+1103.34+351.4Z" opacity="1" fill="#fff5ed"/>
<path d="M1146.14+351.4C1142.68+351.4+1139.34+350.75+1136.14+349.45C1132.94+348.15+1130.21+346.533+1127.94+344.6L1132.14+339C1134.28+340.667+1136.48+342.033+1138.74+343.1C1141.01+344.167+1143.54+344.7+1146.34+344.7C1149.48+344.7+1151.83+343.983+1153.39+342.55C1154.96+341.117+1155.74+339.4+1155.74+337.4C1155.74+335.733+1155.19+334.35+1154.09+333.25C1152.99+332.15+1151.59+331.217+1149.89+330.45C1148.19+329.683+1146.44+328.967+1144.64+328.3C1142.38+327.5+1140.14+326.533+1137.94+325.4C1135.74+324.267+1133.91+322.8+1132.44+321C1130.98+319.2+1130.24+316.933+1130.24+314.2C1130.24+310.267+1131.74+306.967+1134.74+304.3C1137.74+301.633+1141.88+300.3+1147.14+300.3C1150.28+300.3+1153.14+300.85+1155.74+301.95C1158.34+303.05+1160.58+304.333+1162.44+305.8L1158.34+311.4C1156.68+310.133+1154.96+309.083+1153.19+308.25C1151.43+307.417+1149.48+307+1147.34+307C1144.34+307+1142.13+307.683+1140.69+309.05C1139.26+310.417+1138.54+312+1138.54+313.8C1138.54+315.333+1139.06+316.583+1140.09+317.55C1141.13+318.517+1142.46+319.35+1144.09+320.05C1145.73+320.75+1147.48+321.433+1149.34+322.1C1151.61+322.967+1153.88+323.95+1156.14+325.05C1158.41+326.15+1160.29+327.617+1161.79+329.45C1163.29+331.283+1164.04+333.733+1164.04+336.8C1164.04+339.467+1163.36+341.9+1161.99+344.1C1160.63+346.3+1158.61+348.067+1155.94+349.4C1153.28+350.733+1150.01+351.4+1146.14+351.4Z" opacity="1" fill="#fff5ed"/>
</g>
<g opacity="1">
<path d="M719.413+266.959C718.831+267.045+718.292+267.321+717.861+267.752C717.171+268.269+714.073+269.644+711.486+270.592C709.417+271.109+707.235+271.719+705.079+272.409C704.993+272.409+705+272.409+704.914+272.409C688.103+277.667+666.454+288.966+659.04+312.933C658.522+314.657+658.097+316.381+657.752+318.019C657.752+318.105+657.686+318.263+657.686+318.349C657.599+318.694+657.487+319.127+657.487+319.472C657.487+319.644+657.421+319.841+657.421+320.1C657.335+320.617+657.243+321.135+657.157+321.652C657.157+321.91+657.058+322.252+657.058+322.511C657.058+322.769+656.992+322.999+656.992+323.171C656.906+323.602+656.913+323.962+656.827+324.393C656.827+324.565+656.827+324.835+656.827+324.921C656.827+325.353+656.728+325.766+656.728+326.11C656.728+326.197+656.728+326.388+656.728+326.474C656.728+326.991+656.629+327.496+656.629+327.927C656.629+328.444+656.629+328.949+656.629+329.38C656.629+329.466+656.629+329.492+656.629+329.578C656.629+333.113+656.998+335.946+657.256+337.67C654.67+341.894+652.258+346.554+650.189+351.64C649.671+352.933+650.249+354.492+651.543+355.009C651.887+355.181+652.242+355.174+652.5+355.174C653.535+355.174+654.48+354.557+654.911+353.523C656.636+349.212+658.635+345.353+660.79+341.732C664.066+342.163+667.152+342.426+670.17+342.426C687.412+342.426+700.796+334.994+709.934+320.166C710.539+319.224+710.23+318.137+709.571+317.325C709.571+317.325+704.932+311.066+705.079+311.017L715.351+306.823C716.04+306.564+716.545+305.96+716.804+305.27C719.907+295.96+721.22+286.819+721.824+280.698C722.427+274.578+722.492+271.458+722.319+269.734C722.319+269.216+722.248+268.711+721.989+268.28C721.817+267.935+721.633+267.759+721.461+267.587C721.374+267.501+721.217+267.409+721.13+267.323C720.613+266.978+719.995+266.873+719.413+266.959Z" opacity="1" fill="#fff5ed"/>
<path d="M666.771+349.989C664.409+349.989+662.62+351.154+662.62+352.648C662.62+354.141+664.409+355.273+666.771+355.273L722.331+355.273C724.692+355.273+726.482+354.141+726.482+352.648C726.482+351.154+724.692+349.989+722.331+349.989L666.771+349.989Z" opacity="1" fill="#fff5ed"/>
</g>
</g>
</svg>
