<?xml version="1.0" encoding="UTF-8" standalone="no"?> <!-- Created with Vectornator for iOS (http://vectornator.io/) --><!DOCTYPE svg PUBLIC "-//W3C//DTD SVG 1.1//EN" "http://www.w3.org/Graphics/SVG/1.1/DTD/svg11.dtd">
<svg height="100%" style="fill-rule:nonzero;clip-rule:evenodd;stroke-linecap:round;stroke-linejoin:round;" xmlns:xlink="http://www.w3.org/1999/xlink" xmlns="http://www.w3.org/2000/svg" xml:space="preserve" width="100%" xmlns:vectornator="http://vectornator.io" version="1.1" viewBox="0 0 225 244">
<metadata>
<vectornator:setting key="DimensionsVisible" value="0"/>
<vectornator:setting key="PencilOnly" value="0"/>
<vectornator:setting key="SnapToPoints" value="0"/>
<vectornator:setting key="OutlineMode" value="0"/>
<vectornator:setting key="CMYKEnabledKey" value="0"/>
<vectornator:setting key="RulersVisible" value="1"/>
<vectornator:setting key="SnapToEdges" value="0"/>
<vectornator:setting key="GuidesVisible" value="1"/>
<vectornator:setting key="DisplayWhiteBackground" value="0"/>
<vectornator:setting key="doHistoryDisabled" value="0"/>
<vectornator:setting key="SnapToGuides" value="1"/>
<vectornator:setting key="TimeLapseWatermarkDisabled" value="0"/>
<vectornator:setting key="Units" value="Points"/>
<vectornator:setting key="DynamicGuides" value="1"/>
<vectornator:setting key="IsolateActiveLayer" value="0"/>
<vectornator:setting key="SnapToGrid" value="0"/>
</metadata>
<defs/>
<g id="background " vectornator:layerName="background " visibility="hidden">
<path d="M0+0L0+244L225+244L225+0L0+0ZM112.586+32.6699L189.732+77.4062L189.703+166.828L112.527+211.514L35.3809+166.777L35.4102+77.3555L112.586+32.6699Z" opacity="1" fill="#ffffff"/>
</g>
<g id="bleed" vectornator:layerName="bleed" visibility="hidden">
<path stroke="#123c69" stroke-width="20.2501" d="M192.5+75.6784L192.47+168.373L112.47+214.695L32.5+168.322L32.5296+75.6269L112.53+29.3053L192.5+75.6784Z" fill="#fff5ed" stroke-linecap="round" opacity="1" stroke-linejoin="round"/>
</g>
<g id="hex" vectornator:layerName="hex">
<path stroke="#000000" stroke-opacity="1.04083e-16" stroke-width="1" d="M112.587+27.0452L30.5572+74.5421L30.5268+169.589L112.526+217.138L194.556+169.641L194.586+74.5949L112.587+27.0452Z" fill="#123c69" stroke-linecap="round" opacity="1" stroke-linejoin="round"/>
<path stroke="#000000" stroke-opacity="1.04083e-16" stroke-width="1" d="M112.583+38.2952L40.2629+80.1702L40.2361+163.967L112.53+205.888L184.85+164.013L184.877+80.2168L112.583+38.2952Z" fill="#fff5ed" stroke-linecap="round" opacity="1" stroke-linejoin="round"/>
</g>
<g id="link" vectornator:layerName="link">
<g opacity="1">
<path d="M150.609+180.711C150.249+180.919+149.936+180.959+149.672+180.832C149.407+180.704+149.178+180.472+148.983+180.135L147.927+178.305L147.428+178.593L147.164+178.136L147.671+177.798L147.196+176.815L147.695+176.527L148.239+177.47L149.146+176.946L149.43+177.437L148.523+177.961L149.583+179.797C149.7+180.001+149.831+180.136+149.975+180.204C150.118+180.272+150.285+180.251+150.474+180.142C150.534+180.107+150.594+180.061+150.652+180.002C150.711+179.944+150.761+179.887+150.803+179.832L151.174+180.218C151.101+180.304+151.016+180.391+150.919+180.481C150.823+180.57+150.72+180.647+150.609+180.711Z" opacity="1" fill="#24639e"/>
<path d="M151.85+179.884L149.902+176.51L150.504+176.162L152.452+179.536L151.85+179.884ZM149.814+175.655C149.704+175.719+149.591+175.736+149.475+175.707C149.36+175.678+149.269+175.606+149.202+175.491C149.138+175.38+149.123+175.267+149.155+175.153C149.188+175.039+149.26+174.95+149.37+174.886C149.486+174.819+149.6+174.801+149.713+174.831C149.826+174.861+149.914+174.932+149.978+175.043C150.045+175.158+150.063+175.272+150.033+175.385C150.003+175.498+149.93+175.588+149.814+175.655Z" opacity="1" fill="#24639e"/>
<path d="M154.766+178.311C154.346+178.553+153.92+178.593+153.49+178.429C153.059+178.264+152.683+177.903+152.36+177.344C152.15+176.979+152.036+176.626+152.021+176.284C152.005+175.942+152.066+175.634+152.204+175.361C152.341+175.087+152.537+174.877+152.791+174.73C152.99+174.616+153.179+174.552+153.36+174.54C153.541+174.528+153.738+174.541+153.95+174.578L153.591+174.019L152.847+172.731L153.449+172.383L156.297+177.316L155.806+177.6L155.522+177.237L155.508+177.245C155.454+177.449+155.366+177.649+155.245+177.845C155.124+178.041+154.964+178.196+154.766+178.311ZM154.612+177.725C154.765+177.637+154.888+177.517+154.981+177.364C155.075+177.212+155.145+177.02+155.191+176.791L154.187+175.052C153.976+175.007+153.792+174.997+153.633+175.02C153.474+175.044+153.326+175.096+153.187+175.176C153.016+175.275+152.889+175.417+152.806+175.604C152.723+175.791+152.694+176.004+152.719+176.245C152.744+176.487+152.829+176.732+152.973+176.981C153.205+177.383+153.465+177.649+153.752+177.778C154.039+177.908+154.326+177.89+154.612+177.725Z" opacity="1" fill="#24639e"/>
<path d="M158.328+178.065C158.25+178.11+158.174+178.144+158.101+178.168C158.029+178.191+157.957+178.211+157.886+178.227L157.732+177.688C157.774+177.676+157.822+177.663+157.875+177.647C157.928+177.632+157.975+177.613+158.016+177.589C158.206+177.479+158.323+177.322+158.368+177.118C158.413+176.913+158.409+176.691+158.357+176.45L158.293+176.164L154.994+173.57L155.61+173.214L157.342+174.662C157.483+174.777+157.629+174.901+157.779+175.033C157.929+175.165+158.076+175.297+158.22+175.43L158.248+175.414C158.208+175.227+158.164+175.039+158.115+174.848C158.067+174.657+158.022+174.473+157.98+174.294L157.502+172.122L158.091+171.782L158.93+176.147C158.977+176.421+158.997+176.679+158.989+176.921C158.981+177.163+158.926+177.381+158.826+177.574C158.725+177.768+158.559+177.931+158.328+178.065Z" opacity="1" fill="#24639e"/>
<path d="M161.805+174.247C161.445+174.455+161.132+174.495+160.868+174.368C160.603+174.24+160.374+174.008+160.179+173.671L159.123+171.841L158.624+172.129L158.36+171.672L158.867+171.334L158.392+170.351L158.891+170.063L159.435+171.006L160.342+170.482L160.626+170.973L159.719+171.497L160.779+173.333C160.896+173.537+161.027+173.672+161.171+173.74C161.314+173.808+161.481+173.787+161.67+173.678C161.73+173.643+161.79+173.597+161.848+173.538C161.907+173.48+161.957+173.423+161.999+173.368L162.37+173.754C162.297+173.84+162.212+173.927+162.115+174.017C162.019+174.106+161.916+174.183+161.805+174.247Z" opacity="1" fill="#24639e"/>
<path d="M163.876+173.051C163.687+173.16+163.495+173.22+163.301+173.23C163.107+173.241+162.925+173.198+162.756+173.102C162.586+173.006+162.444+172.858+162.33+172.66C162.119+172.295+162.122+171.918+162.337+171.528C162.553+171.139+162.995+170.702+163.663+170.218C163.581+170.075+163.484+169.95+163.374+169.844C163.264+169.739+163.135+169.676+162.988+169.656C162.841+169.636+162.68+169.677+162.504+169.778C162.31+169.89+162.151+170.033+162.027+170.207C161.902+170.38+161.798+170.55+161.715+170.715L161.243+170.442C161.309+170.311+161.392+170.171+161.49+170.022C161.589+169.873+161.706+169.729+161.843+169.592C161.979+169.455+162.137+169.334+162.317+169.23C162.595+169.07+162.854+168.998+163.096+169.012C163.339+169.026+163.56+169.113+163.761+169.275C163.962+169.436+164.145+169.66+164.31+169.946L165.498+172.004L165.006+172.288L164.719+171.918L164.705+171.926C164.621+172.153+164.513+172.367+164.383+172.569C164.253+172.77+164.084+172.931+163.876+173.051ZM163.77+172.466C163.931+172.372+164.06+172.249+164.156+172.095C164.252+171.941+164.338+171.749+164.415+171.52L163.887+170.606C163.549+170.863+163.294+171.09+163.122+171.288C162.95+171.486+162.849+171.666+162.819+171.828C162.789+171.989+162.815+172.14+162.895+172.278C163.001+172.463+163.135+172.563+163.294+172.579C163.454+172.594+163.613+172.556+163.77+172.466Z" opacity="1" fill="#24639e"/>
<path d="M167.223+171.119C167.075+171.204+166.937+171.242+166.809+171.233C166.68+171.224+166.562+171.174+166.454+171.082C166.345+170.991+166.242+170.86+166.143+170.689L163.703+166.463L164.306+166.115L166.77+170.383C166.821+170.47+166.873+170.524+166.928+170.545C166.983+170.566+167.032+170.564+167.073+170.54C167.092+170.529+167.108+170.518+167.123+170.506C167.138+170.495+167.16+170.477+167.19+170.454L167.53+170.867C167.501+170.903+167.462+170.942+167.414+170.985C167.365+171.029+167.301+171.073+167.223+171.119Z" opacity="1" fill="#24639e"/>
<path d="M169.752+169.659C169.451+169.832+169.138+169.919+168.812+169.919C168.486+169.92+168.174+169.83+167.877+169.651C167.579+169.472+167.324+169.198+167.11+168.828C166.9+168.463+166.79+168.106+166.783+167.756C166.775+167.407+166.846+167.093+166.997+166.815C167.147+166.537+167.352+166.324+167.611+166.174C167.897+166.009+168.18+165.934+168.459+165.948C168.738+165.962+168.998+166.058+169.24+166.236C169.481+166.414+169.694+166.662+169.878+166.981C169.912+167.041+169.945+167.102+169.975+167.165C170.005+167.228+170.027+167.283+170.042+167.33L167.665+168.702L167.411+168.276L169.295+167.188C169.106+166.86+168.891+166.65+168.65+166.558C168.409+166.466+168.157+166.496+167.894+166.648C167.736+166.739+167.61+166.872+167.514+167.048C167.418+167.223+167.379+167.434+167.395+167.68C167.41+167.927+167.505+168.2+167.678+168.5C167.846+168.791+168.037+169.001+168.25+169.131C168.464+169.26+168.683+169.323+168.909+169.319C169.134+169.315+169.349+169.254+169.552+169.137C169.713+169.043+169.847+168.934+169.953+168.808C170.059+168.682+170.152+168.544+170.231+168.393L170.67+168.657C170.578+168.84+170.459+169.02+170.312+169.197C170.165+169.374+169.978+169.528+169.752+169.659Z" opacity="1" fill="#24639e"/>
<path d="M172.717+167.947C172.477+168.085+172.22+168.174+171.946+168.212C171.672+168.25+171.418+168.247+171.184+168.204L171.251+167.648C171.465+167.678+171.672+167.684+171.872+167.668C172.072+167.651+172.269+167.587+172.463+167.475C172.68+167.349+172.814+167.206+172.865+167.044C172.916+166.882+172.902+166.731+172.822+166.593C172.755+166.477+172.662+166.403+172.542+166.371C172.421+166.339+172.287+166.33+172.139+166.345C171.99+166.36+171.84+166.381+171.689+166.406C171.5+166.442+171.306+166.464+171.109+166.473C170.911+166.483+170.725+166.455+170.552+166.389C170.378+166.323+170.237+166.195+170.127+166.005C169.97+165.733+169.942+165.444+170.043+165.14C170.144+164.835+170.377+164.577+170.742+164.366C170.959+164.241+171.18+164.165+171.404+164.137C171.628+164.109+171.834+164.109+172.022+164.135L171.962+164.687C171.796+164.666+171.635+164.662+171.479+164.675C171.324+164.688+171.172+164.737+171.024+164.823C170.816+164.943+170.69+165.079+170.645+165.231C170.601+165.383+170.614+165.521+170.686+165.646C170.748+165.752+170.833+165.818+170.944+165.844C171.054+165.869+171.18+165.874+171.321+165.857C171.462+165.84+171.611+165.817+171.767+165.789C171.958+165.758+172.155+165.736+172.356+165.721C172.557+165.707+172.746+165.733+172.923+165.8C173.1+165.867+173.25+166.007+173.373+166.219C173.48+166.404+173.53+166.6+173.523+166.807C173.516+167.014+173.447+167.217+173.316+167.416C173.184+167.615+172.985+167.792+172.717+167.947Z" opacity="1" fill="#24639e"/>
<path d="M175.052+166.599C174.936+166.665+174.813+166.681+174.682+166.646C174.551+166.611+174.448+166.529+174.373+166.399C174.293+166.261+174.271+166.126+174.306+165.995C174.341+165.864+174.416+165.765+174.532+165.698C174.652+165.629+174.777+165.612+174.908+165.647C175.04+165.682+175.145+165.769+175.225+165.907C175.3+166.037+175.32+166.167+175.284+166.298C175.249+166.429+175.172+166.529+175.052+166.599Z" opacity="1" fill="#24639e"/>
<path d="M177.83+164.995C177.53+165.168+177.221+165.254+176.903+165.253C176.585+165.252+176.279+165.16+175.987+164.978C175.694+164.796+175.439+164.518+175.223+164.144C175.007+163.77+174.899+163.406+174.898+163.053C174.897+162.699+174.98+162.382+175.147+162.1C175.314+161.819+175.543+161.594+175.834+161.426C176.056+161.298+176.269+161.228+176.474+161.214C176.679+161.201+176.869+161.214+177.046+161.253L176.969+161.824C176.822+161.792+176.681+161.78+176.546+161.787C176.411+161.794+176.279+161.835+176.15+161.909C175.947+162.027+175.799+162.183+175.705+162.379C175.612+162.574+175.575+162.794+175.596+163.037C175.617+163.281+175.7+163.53+175.847+163.784C175.993+164.038+176.164+164.235+176.359+164.375C176.554+164.515+176.759+164.594+176.975+164.611C177.191+164.627+177.399+164.579+177.597+164.464C177.75+164.376+177.874+164.261+177.971+164.119C178.067+163.977+178.14+163.83+178.188+163.679L178.677+163.933C178.604+164.16+178.496+164.364+178.351+164.546C178.207+164.728+178.033+164.877+177.83+164.995Z" opacity="1" fill="#24639e"/>
<path d="M180.435+163.491C180.245+163.6+180.054+163.66+179.86+163.67C179.666+163.681+179.484+163.638+179.314+163.542C179.145+163.446+179.003+163.298+178.888+163.1C178.677+162.735+178.68+162.358+178.895+161.968C179.111+161.579+179.553+161.142+180.222+160.658C180.139+160.515+180.043+160.39+179.932+160.284C179.822+160.179+179.693+160.116+179.547+160.096C179.4+160.076+179.238+160.117+179.063+160.218C178.869+160.33+178.71+160.473+178.585+160.647C178.46+160.82+178.356+160.99+178.273+161.155L177.802+160.882C177.868+160.751+177.95+160.611+178.049+160.462C178.147+160.313+178.265+160.169+178.401+160.032C178.537+159.895+178.696+159.774+178.876+159.67C179.153+159.51+179.413+159.438+179.655+159.452C179.897+159.466+180.118+159.553+180.319+159.715C180.52+159.876+180.703+160.1+180.869+160.386L182.057+162.444L181.565+162.728L181.277+162.358L181.263+162.366C181.179+162.593+181.072+162.807+180.942+163.009C180.812+163.21+180.643+163.371+180.435+163.491ZM180.328+162.906C180.49+162.812+180.618+162.689+180.714+162.535C180.81+162.381+180.897+162.189+180.974+161.96L180.446+161.046C180.108+161.303+179.852+161.53+179.68+161.728C179.508+161.926+179.407+162.106+179.378+162.268C179.348+162.429+179.373+162.58+179.453+162.718C179.56+162.903+179.693+163.003+179.853+163.019C180.013+163.034+180.171+162.996+180.328+162.906Z" opacity="1" fill="#24639e"/>
</g>
</g>
<g id="logo" vectornator:layerName="logo">
<g opacity="1">
<g opacity="1">
<path d="M77.626+130.308L77.626+116.34L72.898+116.34L72.898+114.564L84.466+114.564L84.466+116.34L79.738+116.34L79.738+130.308L77.626+130.308Z" opacity="1" fill="#123c69"/>
<path d="M87.082+130.308L87.082+118.62L89.17+118.62L89.17+130.308L87.082+130.308ZM88.138+116.268C87.754+116.268+87.434+116.144+87.178+115.896C86.922+115.648+86.794+115.324+86.794+114.924C86.794+114.54+86.922+114.224+87.178+113.976C87.434+113.728+87.754+113.604+88.138+113.604C88.538+113.604+88.862+113.728+89.11+113.976C89.358+114.224+89.482+114.54+89.482+114.924C89.482+115.324+89.358+115.648+89.11+115.896C88.862+116.144+88.538+116.268+88.138+116.268Z" opacity="1" fill="#123c69"/>
<path d="M97.018+130.596C95.562+130.596+94.398+130.06+93.526+128.988C92.654+127.916+92.218+126.412+92.218+124.476C92.218+123.212+92.454+122.124+92.926+121.212C93.398+120.3+94.018+119.592+94.786+119.088C95.554+118.584+96.378+118.332+97.258+118.332C97.946+118.332+98.534+118.452+99.022+118.692C99.51+118.932+100.002+119.26+100.498+119.676L100.402+117.684L100.402+113.22L102.49+113.22L102.49+130.308L100.786+130.308L100.594+128.94L100.546+128.94C100.098+129.388+99.57+129.776+98.962+130.104C98.354+130.432+97.706+130.596+97.018+130.596ZM97.498+128.844C98.026+128.844+98.526+128.716+98.998+128.46C99.47+128.204+99.938+127.812+100.402+127.284L100.402+121.26C99.922+120.828+99.458+120.524+99.01+120.348C98.562+120.172+98.098+120.084+97.618+120.084C97.026+120.084+96.482+120.264+95.986+120.624C95.49+120.984+95.094+121.496+94.798+122.16C94.502+122.824+94.354+123.588+94.354+124.452C94.354+125.844+94.63+126.924+95.182+127.692C95.734+128.46+96.506+128.844+97.498+128.844Z" opacity="1" fill="#123c69"/>
<path d="M106.642+135.3C106.37+135.3+106.122+135.276+105.898+135.228C105.674+135.18+105.458+135.124+105.25+135.06L105.658+133.428C105.786+133.46+105.93+133.496+106.09+133.536C106.25+133.576+106.402+133.596+106.546+133.596C107.202+133.596+107.742+133.364+108.166+132.9C108.59+132.436+108.914+131.852+109.138+131.148L109.402+130.308L104.722+118.62L106.858+118.62L109.186+124.98C109.378+125.492+109.57+126.032+109.762+126.6C109.954+127.168+110.138+127.732+110.314+128.292L110.41+128.292C110.586+127.748+110.754+127.192+110.914+126.624C111.074+126.056+111.234+125.508+111.394+124.98L113.41+118.62L115.45+118.62L111.082+131.22C110.794+132.004+110.458+132.704+110.074+133.32C109.69+133.936+109.222+134.42+108.67+134.772C108.118+135.124+107.442+135.3+106.642+135.3Z" opacity="1" fill="#123c69"/>
<path d="M125.938+130.308L125.938+116.34L121.21+116.34L121.21+114.564L132.778+114.564L132.778+116.34L128.05+116.34L128.05+130.308L125.938+130.308Z" opacity="1" fill="#123c69"/>
<path d="M138.106+130.596C137.45+130.596+136.862+130.464+136.342+130.2C135.822+129.936+135.414+129.552+135.118+129.048C134.822+128.544+134.674+127.948+134.674+127.26C134.674+125.996+135.246+125.02+136.39+124.332C137.534+123.644+139.338+123.172+141.802+122.916C141.802+122.42+141.738+121.952+141.61+121.512C141.482+121.072+141.242+120.716+140.89+120.444C140.538+120.172+140.058+120.036+139.45+120.036C138.778+120.036+138.15+120.168+137.566+120.432C136.982+120.696+136.458+120.98+135.994+121.284L135.178+119.868C135.546+119.628+135.97+119.388+136.45+119.148C136.93+118.908+137.45+118.712+138.01+118.56C138.57+118.408+139.162+118.332+139.786+118.332C140.746+118.332+141.53+118.532+142.138+118.932C142.746+119.332+143.19+119.892+143.47+120.612C143.75+121.332+143.89+122.188+143.89+123.18L143.89+130.308L142.186+130.308L141.994+128.916L141.946+128.916C141.386+129.38+140.786+129.776+140.146+130.104C139.506+130.432+138.826+130.596+138.106+130.596ZM138.706+128.916C139.266+128.916+139.786+128.788+140.266+128.532C140.746+128.276+141.258+127.908+141.802+127.428L141.802+124.26C140.538+124.42+139.534+124.628+138.79+124.884C138.046+125.14+137.514+125.456+137.194+125.832C136.874+126.208+136.714+126.636+136.714+127.116C136.714+127.756+136.91+128.216+137.302+128.496C137.694+128.776+138.162+128.916+138.706+128.916Z" opacity="1" fill="#123c69"/>
<path d="M149.698+130.596C149.186+130.596+148.77+130.488+148.45+130.272C148.13+130.056+147.898+129.748+147.754+129.348C147.61+128.948+147.538+128.452+147.538+127.86L147.538+113.22L149.626+113.22L149.626+128.004C149.626+128.308+149.682+128.528+149.794+128.664C149.906+128.8+150.034+128.868+150.178+128.868C150.242+128.868+150.302+128.864+150.358+128.856C150.414+128.848+150.498+128.836+150.61+128.82L150.874+130.404C150.746+130.452+150.586+130.496+150.394+130.536C150.202+130.576+149.97+130.596+149.698+130.596Z" opacity="1" fill="#123c69"/>
<path d="M158.458+130.596C157.418+130.596+156.474+130.352+155.626+129.864C154.778+129.376+154.102+128.676+153.598+127.764C153.094+126.852+152.842+125.756+152.842+124.476C152.842+123.212+153.094+122.12+153.598+121.2C154.102+120.28+154.758+119.572+155.566+119.076C156.374+118.58+157.226+118.332+158.122+118.332C159.114+118.332+159.962+118.56+160.666+119.016C161.37+119.472+161.902+120.112+162.262+120.936C162.622+121.76+162.802+122.724+162.802+123.828C162.802+124.036+162.794+124.244+162.778+124.452C162.762+124.66+162.738+124.836+162.706+124.98L154.474+124.98L154.45+123.492L160.978+123.492C160.978+122.356+160.734+121.488+160.246+120.888C159.758+120.288+159.058+119.988+158.146+119.988C157.602+119.988+157.074+120.144+156.562+120.456C156.05+120.768+155.63+121.256+155.302+121.92C154.974+122.584+154.81+123.436+154.81+124.476C154.81+125.484+154.99+126.316+155.35+126.972C155.71+127.628+156.186+128.12+156.778+128.448C157.37+128.776+158.018+128.94+158.722+128.94C159.282+128.94+159.794+128.856+160.258+128.688C160.722+128.52+161.17+128.3+161.602+128.028L162.346+129.372C161.834+129.708+161.254+129.996+160.606+130.236C159.958+130.476+159.242+130.596+158.458+130.596Z" opacity="1" fill="#123c69"/>
<path d="M168.73+130.596C167.898+130.596+167.098+130.44+166.33+130.128C165.562+129.816+164.906+129.428+164.362+128.964L165.37+127.62C165.882+128.02+166.41+128.348+166.954+128.604C167.498+128.86+168.106+128.988+168.778+128.988C169.53+128.988+170.094+128.816+170.47+128.472C170.846+128.128+171.034+127.716+171.034+127.236C171.034+126.836+170.902+126.504+170.638+126.24C170.374+125.976+170.038+125.752+169.63+125.568C169.222+125.384+168.802+125.212+168.37+125.052C167.826+124.86+167.29+124.628+166.762+124.356C166.234+124.084+165.794+123.732+165.442+123.3C165.09+122.868+164.914+122.324+164.914+121.668C164.914+120.724+165.274+119.932+165.994+119.292C166.714+118.652+167.706+118.332+168.97+118.332C169.722+118.332+170.41+118.464+171.034+118.728C171.658+118.992+172.194+119.3+172.642+119.652L171.658+120.996C171.258+120.692+170.846+120.44+170.422+120.24C169.998+120.04+169.53+119.94+169.018+119.94C168.298+119.94+167.766+120.104+167.422+120.432C167.078+120.76+166.906+121.14+166.906+121.572C166.906+121.94+167.03+122.24+167.278+122.472C167.526+122.704+167.846+122.904+168.238+123.072C168.63+123.24+169.05+123.404+169.498+123.564C170.042+123.772+170.586+124.008+171.13+124.272C171.674+124.536+172.126+124.888+172.486+125.328C172.846+125.768+173.026+126.356+173.026+127.092C173.026+127.732+172.862+128.316+172.534+128.844C172.206+129.372+171.722+129.796+171.082+130.116C170.442+130.436+169.658+130.596+168.73+130.596Z" opacity="1" fill="#123c69"/>
</g>
<g opacity="1">
<path d="M66.3005+111.447C66.1614+111.467+66.0324+111.533+65.9294+111.636C65.7645+111.76+65.0238+112.089+64.4055+112.315C63.9109+112.439+63.389+112.585+62.8738+112.75C62.8531+112.75+62.8549+112.75+62.8343+112.75C58.8153+114.007+53.6396+116.708+51.8671+122.438C51.7435+122.85+51.6416+123.262+51.5592+123.654C51.5592+123.674+51.5434+123.712+51.5434+123.733C51.5228+123.815+51.496+123.919+51.496+124.001C51.496+124.042+51.4802+124.089+51.4802+124.151C51.4596+124.275+51.4377+124.398+51.4171+124.522C51.4171+124.584+51.3934+124.666+51.3934+124.727C51.3934+124.789+51.3776+124.844+51.3776+124.885C51.357+124.988+51.3587+125.074+51.3381+125.178C51.3381+125.219+51.3381+125.283+51.3381+125.304C51.3381+125.407+51.3144+125.506+51.3144+125.588C51.3144+125.609+51.3144+125.654+51.3144+125.675C51.3144+125.799+51.2907+125.919+51.2907+126.022C51.2907+126.146+51.2907+126.267+51.2907+126.37C51.2907+126.39+51.2907+126.397+51.2907+126.417C51.2907+127.262+51.3789+127.939+51.4408+128.352C50.8225+129.361+50.2457+130.475+49.7511+131.691C49.6274+132.001+49.7656+132.373+50.0748+132.497C50.1572+132.538+50.2419+132.536+50.3038+132.536C50.5511+132.536+50.7771+132.389+50.8802+132.142C51.2924+131.111+51.7703+130.188+52.2856+129.323C53.0688+129.426+53.8066+129.489+54.528+129.489C58.65+129.489+61.8498+127.712+64.0344+124.167C64.1791+123.942+64.1051+123.682+63.9476+123.488C63.9476+123.488+62.8386+121.991+62.8738+121.98L65.3293+120.977C65.4942+120.915+65.6149+120.771+65.6767+120.606C66.4187+118.38+66.7326+116.195+66.8769+114.731C67.0212+113.268+67.0365+112.522+66.9953+112.11C66.9953+111.986+66.9782+111.866+66.9164+111.763C66.8751+111.68+66.8313+111.638+66.79+111.597C66.7694+111.576+66.7317+111.554+66.7111+111.534C66.5874+111.451+66.4396+111.426+66.3005+111.447Z" opacity="1" fill="#123c69"/>
<path d="M53.7154+131.297C53.1508+131.297+52.723+131.575+52.723+131.932C52.723+132.289+53.1508+132.56+53.7154+132.56L66.9981+132.56C67.5626+132.56+67.9904+132.289+67.9904+131.932C67.9904+131.575+67.5626+131.297+66.9981+131.297L53.7154+131.297Z" opacity="1" fill="#123c69"/>
</g>
</g>
</g>
<g id="print guides" vectornator:layerName="print guides" visibility="hidden">
<path stroke="#db3279" stroke-width="1" d="M189.732+77.4058L189.703+166.827L112.528+211.513L35.3815+166.778L35.41+77.3562L112.585+32.6702L189.732+77.4058Z" fill="none" stroke-linecap="round" opacity="1" stroke-linejoin="round"/>
<path stroke="#0093d9" stroke-width="1" d="M194.586+74.5949L194.556+169.641L112.526+217.138L30.5268+169.589L30.5572+74.5421L112.587+27.0452L194.586+74.5949Z" fill="none" stroke-linecap="round" opacity="1" stroke-linejoin="round" stroke-dasharray="2,4"/>
</g>
</svg>
